G75*
%MOIN*%
%OFA0B0*%
%FSLAX25Y25*%
%IPPOS*%
%LPD*%
%AMOC8*
5,1,8,0,0,1.08239X$1,22.5*
%
%ADD10C,0.01200*%
%ADD11C,0.01000*%
%ADD12C,0.00400*%
%ADD13C,0.00000*%
%ADD14C,0.00800*%
%ADD15C,0.00600*%
%ADD16C,0.00200*%
%ADD17C,0.00500*%
%ADD18C,0.00394*%
%ADD19R,0.02000X0.07000*%
D10*
X0016085Y0076051D02*
X0016085Y0146051D01*
X0186085Y0146051D01*
X0186085Y0126051D01*
X0191085Y0126051D01*
X0191085Y0096051D01*
X0186085Y0096051D01*
X0186085Y0076051D01*
X0016085Y0076051D01*
X0058118Y0174705D02*
X0064118Y0174705D01*
X0064118Y0177205D02*
X0058118Y0177205D01*
X0107568Y0177059D02*
X0113568Y0177059D01*
X0113568Y0174559D02*
X0107568Y0174559D01*
X0151085Y0126051D02*
X0186085Y0126051D01*
X0186085Y0096051D02*
X0151085Y0096051D01*
X0151085Y0126051D01*
X0124976Y0258356D02*
X0124976Y0264356D01*
X0122476Y0264356D02*
X0122476Y0258356D01*
D11*
X0118795Y0281709D02*
X0081394Y0281709D01*
X0081394Y0319110D01*
X0118795Y0319110D01*
X0118795Y0281709D01*
D12*
X0103589Y0275064D02*
X0102822Y0275831D01*
X0101287Y0275831D01*
X0100520Y0275064D01*
X0098985Y0275831D02*
X0097451Y0275831D01*
X0098218Y0275831D02*
X0098218Y0271995D01*
X0097451Y0271228D01*
X0096683Y0271228D01*
X0095916Y0271995D01*
X0100520Y0271228D02*
X0103589Y0274297D01*
X0103589Y0275064D01*
X0103589Y0271228D02*
X0100520Y0271228D01*
X0163527Y0160804D02*
X0165061Y0160804D01*
X0164294Y0160804D02*
X0164294Y0156967D01*
X0163527Y0156200D01*
X0162759Y0156200D01*
X0161992Y0156967D01*
X0166596Y0156200D02*
X0169665Y0156200D01*
X0168131Y0156200D02*
X0168131Y0160804D01*
X0166596Y0159269D01*
D13*
X0201000Y0001000D02*
X0001000Y0001000D01*
X0001000Y0331000D01*
X0201000Y0331000D01*
X0201000Y0001000D01*
D14*
X0173404Y0011311D02*
X0167266Y0006707D01*
X0173404Y0011311D02*
X0167266Y0015915D01*
X0119780Y0015767D02*
X0113641Y0015767D01*
X0113641Y0006559D01*
X0119780Y0006559D01*
X0116710Y0011163D02*
X0113641Y0011163D01*
X0110572Y0009629D02*
X0110572Y0015767D01*
X0110572Y0009629D02*
X0107503Y0006559D01*
X0104433Y0009629D01*
X0104433Y0015767D01*
X0101364Y0012698D02*
X0101364Y0006559D01*
X0101364Y0011163D02*
X0095225Y0011163D01*
X0095225Y0012698D02*
X0098295Y0015767D01*
X0101364Y0012698D01*
X0095225Y0012698D02*
X0095225Y0006559D01*
X0092156Y0008094D02*
X0090622Y0006559D01*
X0087552Y0006559D01*
X0086018Y0008094D01*
X0087552Y0011163D02*
X0090622Y0011163D01*
X0092156Y0009629D01*
X0092156Y0008094D01*
X0092156Y0014233D02*
X0090622Y0015767D01*
X0087552Y0015767D01*
X0086018Y0014233D01*
X0086018Y0012698D01*
X0087552Y0011163D01*
X0033906Y0015734D02*
X0027768Y0011130D01*
X0033906Y0006526D01*
D15*
X0035178Y0025252D02*
X0029178Y0025252D01*
X0029178Y0026252D01*
X0028178Y0026252D01*
X0035178Y0026252D02*
X0036178Y0026252D01*
X0035178Y0026252D02*
X0035178Y0025252D01*
X0044178Y0029752D02*
X0044178Y0033252D01*
X0044178Y0042752D01*
X0044178Y0046752D01*
X0036178Y0050252D02*
X0035178Y0050252D01*
X0035178Y0051252D01*
X0029178Y0051252D01*
X0029178Y0050252D01*
X0028178Y0050252D01*
X0020178Y0046752D02*
X0020178Y0043252D01*
X0020178Y0033252D01*
X0020178Y0029752D01*
X0031178Y0038252D02*
X0031180Y0038315D01*
X0031186Y0038377D01*
X0031196Y0038439D01*
X0031209Y0038501D01*
X0031227Y0038561D01*
X0031248Y0038620D01*
X0031273Y0038678D01*
X0031302Y0038734D01*
X0031334Y0038788D01*
X0031369Y0038840D01*
X0031407Y0038889D01*
X0031449Y0038937D01*
X0031493Y0038981D01*
X0031541Y0039023D01*
X0031590Y0039061D01*
X0031642Y0039096D01*
X0031696Y0039128D01*
X0031752Y0039157D01*
X0031810Y0039182D01*
X0031869Y0039203D01*
X0031929Y0039221D01*
X0031991Y0039234D01*
X0032053Y0039244D01*
X0032115Y0039250D01*
X0032178Y0039252D01*
X0032241Y0039250D01*
X0032303Y0039244D01*
X0032365Y0039234D01*
X0032427Y0039221D01*
X0032487Y0039203D01*
X0032546Y0039182D01*
X0032604Y0039157D01*
X0032660Y0039128D01*
X0032714Y0039096D01*
X0032766Y0039061D01*
X0032815Y0039023D01*
X0032863Y0038981D01*
X0032907Y0038937D01*
X0032949Y0038889D01*
X0032987Y0038840D01*
X0033022Y0038788D01*
X0033054Y0038734D01*
X0033083Y0038678D01*
X0033108Y0038620D01*
X0033129Y0038561D01*
X0033147Y0038501D01*
X0033160Y0038439D01*
X0033170Y0038377D01*
X0033176Y0038315D01*
X0033178Y0038252D01*
X0033176Y0038189D01*
X0033170Y0038127D01*
X0033160Y0038065D01*
X0033147Y0038003D01*
X0033129Y0037943D01*
X0033108Y0037884D01*
X0033083Y0037826D01*
X0033054Y0037770D01*
X0033022Y0037716D01*
X0032987Y0037664D01*
X0032949Y0037615D01*
X0032907Y0037567D01*
X0032863Y0037523D01*
X0032815Y0037481D01*
X0032766Y0037443D01*
X0032714Y0037408D01*
X0032660Y0037376D01*
X0032604Y0037347D01*
X0032546Y0037322D01*
X0032487Y0037301D01*
X0032427Y0037283D01*
X0032365Y0037270D01*
X0032303Y0037260D01*
X0032241Y0037254D01*
X0032178Y0037252D01*
X0032115Y0037254D01*
X0032053Y0037260D01*
X0031991Y0037270D01*
X0031929Y0037283D01*
X0031869Y0037301D01*
X0031810Y0037322D01*
X0031752Y0037347D01*
X0031696Y0037376D01*
X0031642Y0037408D01*
X0031590Y0037443D01*
X0031541Y0037481D01*
X0031493Y0037523D01*
X0031449Y0037567D01*
X0031407Y0037615D01*
X0031369Y0037664D01*
X0031334Y0037716D01*
X0031302Y0037770D01*
X0031273Y0037826D01*
X0031248Y0037884D01*
X0031227Y0037943D01*
X0031209Y0038003D01*
X0031196Y0038065D01*
X0031186Y0038127D01*
X0031180Y0038189D01*
X0031178Y0038252D01*
X0025178Y0038252D02*
X0025180Y0038424D01*
X0025186Y0038595D01*
X0025197Y0038767D01*
X0025212Y0038938D01*
X0025231Y0039109D01*
X0025254Y0039279D01*
X0025281Y0039449D01*
X0025313Y0039618D01*
X0025348Y0039786D01*
X0025388Y0039953D01*
X0025432Y0040119D01*
X0025479Y0040284D01*
X0025531Y0040448D01*
X0025587Y0040610D01*
X0025647Y0040771D01*
X0025711Y0040931D01*
X0025779Y0041089D01*
X0025850Y0041245D01*
X0025925Y0041399D01*
X0026005Y0041552D01*
X0026087Y0041702D01*
X0026174Y0041851D01*
X0026264Y0041997D01*
X0026358Y0042141D01*
X0026455Y0042283D01*
X0026556Y0042422D01*
X0026660Y0042559D01*
X0026767Y0042693D01*
X0026878Y0042824D01*
X0026991Y0042953D01*
X0027108Y0043079D01*
X0027228Y0043202D01*
X0027351Y0043322D01*
X0027477Y0043439D01*
X0027606Y0043552D01*
X0027737Y0043663D01*
X0027871Y0043770D01*
X0028008Y0043874D01*
X0028147Y0043975D01*
X0028289Y0044072D01*
X0028433Y0044166D01*
X0028579Y0044256D01*
X0028728Y0044343D01*
X0028878Y0044425D01*
X0029031Y0044505D01*
X0029185Y0044580D01*
X0029341Y0044651D01*
X0029499Y0044719D01*
X0029659Y0044783D01*
X0029820Y0044843D01*
X0029982Y0044899D01*
X0030146Y0044951D01*
X0030311Y0044998D01*
X0030477Y0045042D01*
X0030644Y0045082D01*
X0030812Y0045117D01*
X0030981Y0045149D01*
X0031151Y0045176D01*
X0031321Y0045199D01*
X0031492Y0045218D01*
X0031663Y0045233D01*
X0031835Y0045244D01*
X0032006Y0045250D01*
X0032178Y0045252D01*
X0032350Y0045250D01*
X0032521Y0045244D01*
X0032693Y0045233D01*
X0032864Y0045218D01*
X0033035Y0045199D01*
X0033205Y0045176D01*
X0033375Y0045149D01*
X0033544Y0045117D01*
X0033712Y0045082D01*
X0033879Y0045042D01*
X0034045Y0044998D01*
X0034210Y0044951D01*
X0034374Y0044899D01*
X0034536Y0044843D01*
X0034697Y0044783D01*
X0034857Y0044719D01*
X0035015Y0044651D01*
X0035171Y0044580D01*
X0035325Y0044505D01*
X0035478Y0044425D01*
X0035628Y0044343D01*
X0035777Y0044256D01*
X0035923Y0044166D01*
X0036067Y0044072D01*
X0036209Y0043975D01*
X0036348Y0043874D01*
X0036485Y0043770D01*
X0036619Y0043663D01*
X0036750Y0043552D01*
X0036879Y0043439D01*
X0037005Y0043322D01*
X0037128Y0043202D01*
X0037248Y0043079D01*
X0037365Y0042953D01*
X0037478Y0042824D01*
X0037589Y0042693D01*
X0037696Y0042559D01*
X0037800Y0042422D01*
X0037901Y0042283D01*
X0037998Y0042141D01*
X0038092Y0041997D01*
X0038182Y0041851D01*
X0038269Y0041702D01*
X0038351Y0041552D01*
X0038431Y0041399D01*
X0038506Y0041245D01*
X0038577Y0041089D01*
X0038645Y0040931D01*
X0038709Y0040771D01*
X0038769Y0040610D01*
X0038825Y0040448D01*
X0038877Y0040284D01*
X0038924Y0040119D01*
X0038968Y0039953D01*
X0039008Y0039786D01*
X0039043Y0039618D01*
X0039075Y0039449D01*
X0039102Y0039279D01*
X0039125Y0039109D01*
X0039144Y0038938D01*
X0039159Y0038767D01*
X0039170Y0038595D01*
X0039176Y0038424D01*
X0039178Y0038252D01*
X0039176Y0038080D01*
X0039170Y0037909D01*
X0039159Y0037737D01*
X0039144Y0037566D01*
X0039125Y0037395D01*
X0039102Y0037225D01*
X0039075Y0037055D01*
X0039043Y0036886D01*
X0039008Y0036718D01*
X0038968Y0036551D01*
X0038924Y0036385D01*
X0038877Y0036220D01*
X0038825Y0036056D01*
X0038769Y0035894D01*
X0038709Y0035733D01*
X0038645Y0035573D01*
X0038577Y0035415D01*
X0038506Y0035259D01*
X0038431Y0035105D01*
X0038351Y0034952D01*
X0038269Y0034802D01*
X0038182Y0034653D01*
X0038092Y0034507D01*
X0037998Y0034363D01*
X0037901Y0034221D01*
X0037800Y0034082D01*
X0037696Y0033945D01*
X0037589Y0033811D01*
X0037478Y0033680D01*
X0037365Y0033551D01*
X0037248Y0033425D01*
X0037128Y0033302D01*
X0037005Y0033182D01*
X0036879Y0033065D01*
X0036750Y0032952D01*
X0036619Y0032841D01*
X0036485Y0032734D01*
X0036348Y0032630D01*
X0036209Y0032529D01*
X0036067Y0032432D01*
X0035923Y0032338D01*
X0035777Y0032248D01*
X0035628Y0032161D01*
X0035478Y0032079D01*
X0035325Y0031999D01*
X0035171Y0031924D01*
X0035015Y0031853D01*
X0034857Y0031785D01*
X0034697Y0031721D01*
X0034536Y0031661D01*
X0034374Y0031605D01*
X0034210Y0031553D01*
X0034045Y0031506D01*
X0033879Y0031462D01*
X0033712Y0031422D01*
X0033544Y0031387D01*
X0033375Y0031355D01*
X0033205Y0031328D01*
X0033035Y0031305D01*
X0032864Y0031286D01*
X0032693Y0031271D01*
X0032521Y0031260D01*
X0032350Y0031254D01*
X0032178Y0031252D01*
X0032006Y0031254D01*
X0031835Y0031260D01*
X0031663Y0031271D01*
X0031492Y0031286D01*
X0031321Y0031305D01*
X0031151Y0031328D01*
X0030981Y0031355D01*
X0030812Y0031387D01*
X0030644Y0031422D01*
X0030477Y0031462D01*
X0030311Y0031506D01*
X0030146Y0031553D01*
X0029982Y0031605D01*
X0029820Y0031661D01*
X0029659Y0031721D01*
X0029499Y0031785D01*
X0029341Y0031853D01*
X0029185Y0031924D01*
X0029031Y0031999D01*
X0028878Y0032079D01*
X0028728Y0032161D01*
X0028579Y0032248D01*
X0028433Y0032338D01*
X0028289Y0032432D01*
X0028147Y0032529D01*
X0028008Y0032630D01*
X0027871Y0032734D01*
X0027737Y0032841D01*
X0027606Y0032952D01*
X0027477Y0033065D01*
X0027351Y0033182D01*
X0027228Y0033302D01*
X0027108Y0033425D01*
X0026991Y0033551D01*
X0026878Y0033680D01*
X0026767Y0033811D01*
X0026660Y0033945D01*
X0026556Y0034082D01*
X0026455Y0034221D01*
X0026358Y0034363D01*
X0026264Y0034507D01*
X0026174Y0034653D01*
X0026087Y0034802D01*
X0026005Y0034952D01*
X0025925Y0035105D01*
X0025850Y0035259D01*
X0025779Y0035415D01*
X0025711Y0035573D01*
X0025647Y0035733D01*
X0025587Y0035894D01*
X0025531Y0036056D01*
X0025479Y0036220D01*
X0025432Y0036385D01*
X0025388Y0036551D01*
X0025348Y0036718D01*
X0025313Y0036886D01*
X0025281Y0037055D01*
X0025254Y0037225D01*
X0025231Y0037395D01*
X0025212Y0037566D01*
X0025197Y0037737D01*
X0025186Y0037909D01*
X0025180Y0038080D01*
X0025178Y0038252D01*
X0057858Y0105941D02*
X0057858Y0110211D01*
X0059994Y0112346D01*
X0062129Y0110211D01*
X0062129Y0105941D01*
X0064304Y0105941D02*
X0064304Y0112346D01*
X0067507Y0112346D01*
X0068574Y0111278D01*
X0068574Y0109143D01*
X0067507Y0108076D01*
X0064304Y0108076D01*
X0066439Y0108076D02*
X0068574Y0105941D01*
X0070749Y0105941D02*
X0073952Y0105941D01*
X0075020Y0107008D01*
X0075020Y0111278D01*
X0073952Y0112346D01*
X0070749Y0112346D01*
X0070749Y0105941D01*
X0077195Y0107008D02*
X0078262Y0105941D01*
X0080398Y0105941D01*
X0081465Y0107008D01*
X0081465Y0112346D01*
X0083640Y0112346D02*
X0085775Y0112346D01*
X0084708Y0112346D02*
X0084708Y0105941D01*
X0085775Y0105941D02*
X0083640Y0105941D01*
X0087937Y0105941D02*
X0087937Y0112346D01*
X0092208Y0105941D01*
X0092208Y0112346D01*
X0094383Y0111278D02*
X0094383Y0107008D01*
X0095450Y0105941D01*
X0097586Y0105941D01*
X0098653Y0107008D01*
X0098653Y0111278D01*
X0097586Y0112346D01*
X0095450Y0112346D01*
X0094383Y0111278D01*
X0107274Y0112346D02*
X0107274Y0105941D01*
X0111544Y0105941D02*
X0107274Y0112346D01*
X0111544Y0112346D02*
X0111544Y0105941D01*
X0113719Y0105941D02*
X0113719Y0110211D01*
X0115854Y0112346D01*
X0117990Y0110211D01*
X0117990Y0105941D01*
X0120165Y0105941D02*
X0120165Y0112346D01*
X0124435Y0105941D01*
X0124435Y0112346D01*
X0126610Y0111278D02*
X0126610Y0107008D01*
X0127678Y0105941D01*
X0129813Y0105941D01*
X0130881Y0107008D01*
X0130881Y0111278D01*
X0129813Y0112346D01*
X0127678Y0112346D01*
X0126610Y0111278D01*
X0117990Y0109143D02*
X0113719Y0109143D01*
X0103989Y0051140D02*
X0097989Y0051140D01*
X0097989Y0050140D01*
X0096989Y0050140D01*
X0103989Y0050140D02*
X0104989Y0050140D01*
X0103989Y0050140D02*
X0103989Y0051140D01*
X0099989Y0038140D02*
X0099991Y0038203D01*
X0099997Y0038265D01*
X0100007Y0038327D01*
X0100020Y0038389D01*
X0100038Y0038449D01*
X0100059Y0038508D01*
X0100084Y0038566D01*
X0100113Y0038622D01*
X0100145Y0038676D01*
X0100180Y0038728D01*
X0100218Y0038777D01*
X0100260Y0038825D01*
X0100304Y0038869D01*
X0100352Y0038911D01*
X0100401Y0038949D01*
X0100453Y0038984D01*
X0100507Y0039016D01*
X0100563Y0039045D01*
X0100621Y0039070D01*
X0100680Y0039091D01*
X0100740Y0039109D01*
X0100802Y0039122D01*
X0100864Y0039132D01*
X0100926Y0039138D01*
X0100989Y0039140D01*
X0101052Y0039138D01*
X0101114Y0039132D01*
X0101176Y0039122D01*
X0101238Y0039109D01*
X0101298Y0039091D01*
X0101357Y0039070D01*
X0101415Y0039045D01*
X0101471Y0039016D01*
X0101525Y0038984D01*
X0101577Y0038949D01*
X0101626Y0038911D01*
X0101674Y0038869D01*
X0101718Y0038825D01*
X0101760Y0038777D01*
X0101798Y0038728D01*
X0101833Y0038676D01*
X0101865Y0038622D01*
X0101894Y0038566D01*
X0101919Y0038508D01*
X0101940Y0038449D01*
X0101958Y0038389D01*
X0101971Y0038327D01*
X0101981Y0038265D01*
X0101987Y0038203D01*
X0101989Y0038140D01*
X0101987Y0038077D01*
X0101981Y0038015D01*
X0101971Y0037953D01*
X0101958Y0037891D01*
X0101940Y0037831D01*
X0101919Y0037772D01*
X0101894Y0037714D01*
X0101865Y0037658D01*
X0101833Y0037604D01*
X0101798Y0037552D01*
X0101760Y0037503D01*
X0101718Y0037455D01*
X0101674Y0037411D01*
X0101626Y0037369D01*
X0101577Y0037331D01*
X0101525Y0037296D01*
X0101471Y0037264D01*
X0101415Y0037235D01*
X0101357Y0037210D01*
X0101298Y0037189D01*
X0101238Y0037171D01*
X0101176Y0037158D01*
X0101114Y0037148D01*
X0101052Y0037142D01*
X0100989Y0037140D01*
X0100926Y0037142D01*
X0100864Y0037148D01*
X0100802Y0037158D01*
X0100740Y0037171D01*
X0100680Y0037189D01*
X0100621Y0037210D01*
X0100563Y0037235D01*
X0100507Y0037264D01*
X0100453Y0037296D01*
X0100401Y0037331D01*
X0100352Y0037369D01*
X0100304Y0037411D01*
X0100260Y0037455D01*
X0100218Y0037503D01*
X0100180Y0037552D01*
X0100145Y0037604D01*
X0100113Y0037658D01*
X0100084Y0037714D01*
X0100059Y0037772D01*
X0100038Y0037831D01*
X0100020Y0037891D01*
X0100007Y0037953D01*
X0099997Y0038015D01*
X0099991Y0038077D01*
X0099989Y0038140D01*
X0093989Y0038140D02*
X0093991Y0038312D01*
X0093997Y0038483D01*
X0094008Y0038655D01*
X0094023Y0038826D01*
X0094042Y0038997D01*
X0094065Y0039167D01*
X0094092Y0039337D01*
X0094124Y0039506D01*
X0094159Y0039674D01*
X0094199Y0039841D01*
X0094243Y0040007D01*
X0094290Y0040172D01*
X0094342Y0040336D01*
X0094398Y0040498D01*
X0094458Y0040659D01*
X0094522Y0040819D01*
X0094590Y0040977D01*
X0094661Y0041133D01*
X0094736Y0041287D01*
X0094816Y0041440D01*
X0094898Y0041590D01*
X0094985Y0041739D01*
X0095075Y0041885D01*
X0095169Y0042029D01*
X0095266Y0042171D01*
X0095367Y0042310D01*
X0095471Y0042447D01*
X0095578Y0042581D01*
X0095689Y0042712D01*
X0095802Y0042841D01*
X0095919Y0042967D01*
X0096039Y0043090D01*
X0096162Y0043210D01*
X0096288Y0043327D01*
X0096417Y0043440D01*
X0096548Y0043551D01*
X0096682Y0043658D01*
X0096819Y0043762D01*
X0096958Y0043863D01*
X0097100Y0043960D01*
X0097244Y0044054D01*
X0097390Y0044144D01*
X0097539Y0044231D01*
X0097689Y0044313D01*
X0097842Y0044393D01*
X0097996Y0044468D01*
X0098152Y0044539D01*
X0098310Y0044607D01*
X0098470Y0044671D01*
X0098631Y0044731D01*
X0098793Y0044787D01*
X0098957Y0044839D01*
X0099122Y0044886D01*
X0099288Y0044930D01*
X0099455Y0044970D01*
X0099623Y0045005D01*
X0099792Y0045037D01*
X0099962Y0045064D01*
X0100132Y0045087D01*
X0100303Y0045106D01*
X0100474Y0045121D01*
X0100646Y0045132D01*
X0100817Y0045138D01*
X0100989Y0045140D01*
X0101161Y0045138D01*
X0101332Y0045132D01*
X0101504Y0045121D01*
X0101675Y0045106D01*
X0101846Y0045087D01*
X0102016Y0045064D01*
X0102186Y0045037D01*
X0102355Y0045005D01*
X0102523Y0044970D01*
X0102690Y0044930D01*
X0102856Y0044886D01*
X0103021Y0044839D01*
X0103185Y0044787D01*
X0103347Y0044731D01*
X0103508Y0044671D01*
X0103668Y0044607D01*
X0103826Y0044539D01*
X0103982Y0044468D01*
X0104136Y0044393D01*
X0104289Y0044313D01*
X0104439Y0044231D01*
X0104588Y0044144D01*
X0104734Y0044054D01*
X0104878Y0043960D01*
X0105020Y0043863D01*
X0105159Y0043762D01*
X0105296Y0043658D01*
X0105430Y0043551D01*
X0105561Y0043440D01*
X0105690Y0043327D01*
X0105816Y0043210D01*
X0105939Y0043090D01*
X0106059Y0042967D01*
X0106176Y0042841D01*
X0106289Y0042712D01*
X0106400Y0042581D01*
X0106507Y0042447D01*
X0106611Y0042310D01*
X0106712Y0042171D01*
X0106809Y0042029D01*
X0106903Y0041885D01*
X0106993Y0041739D01*
X0107080Y0041590D01*
X0107162Y0041440D01*
X0107242Y0041287D01*
X0107317Y0041133D01*
X0107388Y0040977D01*
X0107456Y0040819D01*
X0107520Y0040659D01*
X0107580Y0040498D01*
X0107636Y0040336D01*
X0107688Y0040172D01*
X0107735Y0040007D01*
X0107779Y0039841D01*
X0107819Y0039674D01*
X0107854Y0039506D01*
X0107886Y0039337D01*
X0107913Y0039167D01*
X0107936Y0038997D01*
X0107955Y0038826D01*
X0107970Y0038655D01*
X0107981Y0038483D01*
X0107987Y0038312D01*
X0107989Y0038140D01*
X0107987Y0037968D01*
X0107981Y0037797D01*
X0107970Y0037625D01*
X0107955Y0037454D01*
X0107936Y0037283D01*
X0107913Y0037113D01*
X0107886Y0036943D01*
X0107854Y0036774D01*
X0107819Y0036606D01*
X0107779Y0036439D01*
X0107735Y0036273D01*
X0107688Y0036108D01*
X0107636Y0035944D01*
X0107580Y0035782D01*
X0107520Y0035621D01*
X0107456Y0035461D01*
X0107388Y0035303D01*
X0107317Y0035147D01*
X0107242Y0034993D01*
X0107162Y0034840D01*
X0107080Y0034690D01*
X0106993Y0034541D01*
X0106903Y0034395D01*
X0106809Y0034251D01*
X0106712Y0034109D01*
X0106611Y0033970D01*
X0106507Y0033833D01*
X0106400Y0033699D01*
X0106289Y0033568D01*
X0106176Y0033439D01*
X0106059Y0033313D01*
X0105939Y0033190D01*
X0105816Y0033070D01*
X0105690Y0032953D01*
X0105561Y0032840D01*
X0105430Y0032729D01*
X0105296Y0032622D01*
X0105159Y0032518D01*
X0105020Y0032417D01*
X0104878Y0032320D01*
X0104734Y0032226D01*
X0104588Y0032136D01*
X0104439Y0032049D01*
X0104289Y0031967D01*
X0104136Y0031887D01*
X0103982Y0031812D01*
X0103826Y0031741D01*
X0103668Y0031673D01*
X0103508Y0031609D01*
X0103347Y0031549D01*
X0103185Y0031493D01*
X0103021Y0031441D01*
X0102856Y0031394D01*
X0102690Y0031350D01*
X0102523Y0031310D01*
X0102355Y0031275D01*
X0102186Y0031243D01*
X0102016Y0031216D01*
X0101846Y0031193D01*
X0101675Y0031174D01*
X0101504Y0031159D01*
X0101332Y0031148D01*
X0101161Y0031142D01*
X0100989Y0031140D01*
X0100817Y0031142D01*
X0100646Y0031148D01*
X0100474Y0031159D01*
X0100303Y0031174D01*
X0100132Y0031193D01*
X0099962Y0031216D01*
X0099792Y0031243D01*
X0099623Y0031275D01*
X0099455Y0031310D01*
X0099288Y0031350D01*
X0099122Y0031394D01*
X0098957Y0031441D01*
X0098793Y0031493D01*
X0098631Y0031549D01*
X0098470Y0031609D01*
X0098310Y0031673D01*
X0098152Y0031741D01*
X0097996Y0031812D01*
X0097842Y0031887D01*
X0097689Y0031967D01*
X0097539Y0032049D01*
X0097390Y0032136D01*
X0097244Y0032226D01*
X0097100Y0032320D01*
X0096958Y0032417D01*
X0096819Y0032518D01*
X0096682Y0032622D01*
X0096548Y0032729D01*
X0096417Y0032840D01*
X0096288Y0032953D01*
X0096162Y0033070D01*
X0096039Y0033190D01*
X0095919Y0033313D01*
X0095802Y0033439D01*
X0095689Y0033568D01*
X0095578Y0033699D01*
X0095471Y0033833D01*
X0095367Y0033970D01*
X0095266Y0034109D01*
X0095169Y0034251D01*
X0095075Y0034395D01*
X0094985Y0034541D01*
X0094898Y0034690D01*
X0094816Y0034840D01*
X0094736Y0034993D01*
X0094661Y0035147D01*
X0094590Y0035303D01*
X0094522Y0035461D01*
X0094458Y0035621D01*
X0094398Y0035782D01*
X0094342Y0035944D01*
X0094290Y0036108D01*
X0094243Y0036273D01*
X0094199Y0036439D01*
X0094159Y0036606D01*
X0094124Y0036774D01*
X0094092Y0036943D01*
X0094065Y0037113D01*
X0094042Y0037283D01*
X0094023Y0037454D01*
X0094008Y0037625D01*
X0093997Y0037797D01*
X0093991Y0037968D01*
X0093989Y0038140D01*
X0088989Y0033140D02*
X0088989Y0029640D01*
X0088989Y0033140D02*
X0088989Y0043140D01*
X0088989Y0046640D01*
X0096989Y0026140D02*
X0097989Y0026140D01*
X0097989Y0025140D01*
X0103989Y0025140D01*
X0103989Y0026140D01*
X0104989Y0026140D01*
X0112989Y0029640D02*
X0112989Y0033140D01*
X0112989Y0042640D01*
X0112989Y0046640D01*
X0077195Y0107008D02*
X0077195Y0112346D01*
X0062129Y0109143D02*
X0057858Y0109143D01*
X0058618Y0167505D02*
X0058531Y0167507D01*
X0058444Y0167513D01*
X0058357Y0167522D01*
X0058271Y0167535D01*
X0058185Y0167552D01*
X0058100Y0167573D01*
X0058017Y0167598D01*
X0057934Y0167626D01*
X0057853Y0167657D01*
X0057773Y0167692D01*
X0057695Y0167731D01*
X0057618Y0167773D01*
X0057543Y0167818D01*
X0057471Y0167867D01*
X0057400Y0167918D01*
X0057332Y0167973D01*
X0057267Y0168030D01*
X0057204Y0168091D01*
X0057143Y0168154D01*
X0057086Y0168219D01*
X0057031Y0168287D01*
X0056980Y0168358D01*
X0056931Y0168430D01*
X0056886Y0168505D01*
X0056844Y0168582D01*
X0056805Y0168660D01*
X0056770Y0168740D01*
X0056739Y0168821D01*
X0056711Y0168904D01*
X0056686Y0168987D01*
X0056665Y0169072D01*
X0056648Y0169158D01*
X0056635Y0169244D01*
X0056626Y0169331D01*
X0056620Y0169418D01*
X0056618Y0169505D01*
X0056618Y0182505D01*
X0056620Y0182592D01*
X0056626Y0182679D01*
X0056635Y0182766D01*
X0056648Y0182852D01*
X0056665Y0182938D01*
X0056686Y0183023D01*
X0056711Y0183106D01*
X0056739Y0183189D01*
X0056770Y0183270D01*
X0056805Y0183350D01*
X0056844Y0183428D01*
X0056886Y0183505D01*
X0056931Y0183580D01*
X0056980Y0183652D01*
X0057031Y0183723D01*
X0057086Y0183791D01*
X0057143Y0183856D01*
X0057204Y0183919D01*
X0057267Y0183980D01*
X0057332Y0184037D01*
X0057400Y0184092D01*
X0057471Y0184143D01*
X0057543Y0184192D01*
X0057618Y0184237D01*
X0057695Y0184279D01*
X0057773Y0184318D01*
X0057853Y0184353D01*
X0057934Y0184384D01*
X0058017Y0184412D01*
X0058100Y0184437D01*
X0058185Y0184458D01*
X0058271Y0184475D01*
X0058357Y0184488D01*
X0058444Y0184497D01*
X0058531Y0184503D01*
X0058618Y0184505D01*
X0056618Y0186105D02*
X0056618Y0189505D01*
X0056618Y0191605D02*
X0056618Y0192505D01*
X0056620Y0192592D01*
X0056626Y0192679D01*
X0056635Y0192766D01*
X0056648Y0192852D01*
X0056665Y0192938D01*
X0056686Y0193023D01*
X0056711Y0193106D01*
X0056739Y0193189D01*
X0056770Y0193270D01*
X0056805Y0193350D01*
X0056844Y0193428D01*
X0056886Y0193505D01*
X0056931Y0193580D01*
X0056980Y0193652D01*
X0057031Y0193723D01*
X0057086Y0193791D01*
X0057143Y0193856D01*
X0057204Y0193919D01*
X0057267Y0193980D01*
X0057332Y0194037D01*
X0057400Y0194092D01*
X0057471Y0194143D01*
X0057543Y0194192D01*
X0057618Y0194237D01*
X0057695Y0194279D01*
X0057773Y0194318D01*
X0057853Y0194353D01*
X0057934Y0194384D01*
X0058017Y0194412D01*
X0058100Y0194437D01*
X0058185Y0194458D01*
X0058271Y0194475D01*
X0058357Y0194488D01*
X0058444Y0194497D01*
X0058531Y0194503D01*
X0058618Y0194505D01*
X0063618Y0194505D01*
X0063705Y0194503D01*
X0063792Y0194497D01*
X0063879Y0194488D01*
X0063965Y0194475D01*
X0064051Y0194458D01*
X0064136Y0194437D01*
X0064219Y0194412D01*
X0064302Y0194384D01*
X0064383Y0194353D01*
X0064463Y0194318D01*
X0064541Y0194279D01*
X0064618Y0194237D01*
X0064693Y0194192D01*
X0064765Y0194143D01*
X0064836Y0194092D01*
X0064904Y0194037D01*
X0064969Y0193980D01*
X0065032Y0193919D01*
X0065093Y0193856D01*
X0065150Y0193791D01*
X0065205Y0193723D01*
X0065256Y0193652D01*
X0065305Y0193580D01*
X0065350Y0193505D01*
X0065392Y0193428D01*
X0065431Y0193350D01*
X0065466Y0193270D01*
X0065497Y0193189D01*
X0065525Y0193106D01*
X0065550Y0193023D01*
X0065571Y0192938D01*
X0065588Y0192852D01*
X0065601Y0192766D01*
X0065610Y0192679D01*
X0065616Y0192592D01*
X0065618Y0192505D01*
X0065618Y0191605D01*
X0065618Y0189505D02*
X0065618Y0186105D01*
X0065618Y0182505D02*
X0065618Y0169505D01*
X0065616Y0169418D01*
X0065610Y0169331D01*
X0065601Y0169244D01*
X0065588Y0169158D01*
X0065571Y0169072D01*
X0065550Y0168987D01*
X0065525Y0168904D01*
X0065497Y0168821D01*
X0065466Y0168740D01*
X0065431Y0168660D01*
X0065392Y0168582D01*
X0065350Y0168505D01*
X0065305Y0168430D01*
X0065256Y0168358D01*
X0065205Y0168287D01*
X0065150Y0168219D01*
X0065093Y0168154D01*
X0065032Y0168091D01*
X0064969Y0168030D01*
X0064904Y0167973D01*
X0064836Y0167918D01*
X0064765Y0167867D01*
X0064693Y0167818D01*
X0064618Y0167773D01*
X0064541Y0167731D01*
X0064463Y0167692D01*
X0064383Y0167657D01*
X0064302Y0167626D01*
X0064219Y0167598D01*
X0064136Y0167573D01*
X0064051Y0167552D01*
X0063965Y0167535D01*
X0063879Y0167522D01*
X0063792Y0167513D01*
X0063705Y0167507D01*
X0063618Y0167505D01*
X0065618Y0182505D02*
X0065616Y0182592D01*
X0065610Y0182679D01*
X0065601Y0182766D01*
X0065588Y0182852D01*
X0065571Y0182938D01*
X0065550Y0183023D01*
X0065525Y0183106D01*
X0065497Y0183189D01*
X0065466Y0183270D01*
X0065431Y0183350D01*
X0065392Y0183428D01*
X0065350Y0183505D01*
X0065305Y0183580D01*
X0065256Y0183652D01*
X0065205Y0183723D01*
X0065150Y0183791D01*
X0065093Y0183856D01*
X0065032Y0183919D01*
X0064969Y0183980D01*
X0064904Y0184037D01*
X0064836Y0184092D01*
X0064765Y0184143D01*
X0064693Y0184192D01*
X0064618Y0184237D01*
X0064541Y0184279D01*
X0064463Y0184318D01*
X0064383Y0184353D01*
X0064302Y0184384D01*
X0064219Y0184412D01*
X0064136Y0184437D01*
X0064051Y0184458D01*
X0063965Y0184475D01*
X0063879Y0184488D01*
X0063792Y0184497D01*
X0063705Y0184503D01*
X0063618Y0184505D01*
X0075819Y0181514D02*
X0077397Y0181514D01*
X0078023Y0176014D02*
X0094519Y0176014D01*
X0095145Y0181514D02*
X0096724Y0181514D01*
X0106068Y0182359D02*
X0106068Y0169359D01*
X0106070Y0169272D01*
X0106076Y0169185D01*
X0106085Y0169098D01*
X0106098Y0169012D01*
X0106115Y0168926D01*
X0106136Y0168841D01*
X0106161Y0168758D01*
X0106189Y0168675D01*
X0106220Y0168594D01*
X0106255Y0168514D01*
X0106294Y0168436D01*
X0106336Y0168359D01*
X0106381Y0168284D01*
X0106430Y0168212D01*
X0106481Y0168141D01*
X0106536Y0168073D01*
X0106593Y0168008D01*
X0106654Y0167945D01*
X0106717Y0167884D01*
X0106782Y0167827D01*
X0106850Y0167772D01*
X0106921Y0167721D01*
X0106993Y0167672D01*
X0107068Y0167627D01*
X0107145Y0167585D01*
X0107223Y0167546D01*
X0107303Y0167511D01*
X0107384Y0167480D01*
X0107467Y0167452D01*
X0107550Y0167427D01*
X0107635Y0167406D01*
X0107721Y0167389D01*
X0107807Y0167376D01*
X0107894Y0167367D01*
X0107981Y0167361D01*
X0108068Y0167359D01*
X0113068Y0167359D02*
X0113155Y0167361D01*
X0113242Y0167367D01*
X0113329Y0167376D01*
X0113415Y0167389D01*
X0113501Y0167406D01*
X0113586Y0167427D01*
X0113669Y0167452D01*
X0113752Y0167480D01*
X0113833Y0167511D01*
X0113913Y0167546D01*
X0113991Y0167585D01*
X0114068Y0167627D01*
X0114143Y0167672D01*
X0114215Y0167721D01*
X0114286Y0167772D01*
X0114354Y0167827D01*
X0114419Y0167884D01*
X0114482Y0167945D01*
X0114543Y0168008D01*
X0114600Y0168073D01*
X0114655Y0168141D01*
X0114706Y0168212D01*
X0114755Y0168284D01*
X0114800Y0168359D01*
X0114842Y0168436D01*
X0114881Y0168514D01*
X0114916Y0168594D01*
X0114947Y0168675D01*
X0114975Y0168758D01*
X0115000Y0168841D01*
X0115021Y0168926D01*
X0115038Y0169012D01*
X0115051Y0169098D01*
X0115060Y0169185D01*
X0115066Y0169272D01*
X0115068Y0169359D01*
X0115068Y0182359D01*
X0115066Y0182446D01*
X0115060Y0182533D01*
X0115051Y0182620D01*
X0115038Y0182706D01*
X0115021Y0182792D01*
X0115000Y0182877D01*
X0114975Y0182960D01*
X0114947Y0183043D01*
X0114916Y0183124D01*
X0114881Y0183204D01*
X0114842Y0183282D01*
X0114800Y0183359D01*
X0114755Y0183434D01*
X0114706Y0183506D01*
X0114655Y0183577D01*
X0114600Y0183645D01*
X0114543Y0183710D01*
X0114482Y0183773D01*
X0114419Y0183834D01*
X0114354Y0183891D01*
X0114286Y0183946D01*
X0114215Y0183997D01*
X0114143Y0184046D01*
X0114068Y0184091D01*
X0113991Y0184133D01*
X0113913Y0184172D01*
X0113833Y0184207D01*
X0113752Y0184238D01*
X0113669Y0184266D01*
X0113586Y0184291D01*
X0113501Y0184312D01*
X0113415Y0184329D01*
X0113329Y0184342D01*
X0113242Y0184351D01*
X0113155Y0184357D01*
X0113068Y0184359D01*
X0115068Y0185959D02*
X0115068Y0189359D01*
X0115068Y0191459D02*
X0115068Y0192359D01*
X0115066Y0192446D01*
X0115060Y0192533D01*
X0115051Y0192620D01*
X0115038Y0192706D01*
X0115021Y0192792D01*
X0115000Y0192877D01*
X0114975Y0192960D01*
X0114947Y0193043D01*
X0114916Y0193124D01*
X0114881Y0193204D01*
X0114842Y0193282D01*
X0114800Y0193359D01*
X0114755Y0193434D01*
X0114706Y0193506D01*
X0114655Y0193577D01*
X0114600Y0193645D01*
X0114543Y0193710D01*
X0114482Y0193773D01*
X0114419Y0193834D01*
X0114354Y0193891D01*
X0114286Y0193946D01*
X0114215Y0193997D01*
X0114143Y0194046D01*
X0114068Y0194091D01*
X0113991Y0194133D01*
X0113913Y0194172D01*
X0113833Y0194207D01*
X0113752Y0194238D01*
X0113669Y0194266D01*
X0113586Y0194291D01*
X0113501Y0194312D01*
X0113415Y0194329D01*
X0113329Y0194342D01*
X0113242Y0194351D01*
X0113155Y0194357D01*
X0113068Y0194359D01*
X0108068Y0194359D01*
X0107981Y0194357D01*
X0107894Y0194351D01*
X0107807Y0194342D01*
X0107721Y0194329D01*
X0107635Y0194312D01*
X0107550Y0194291D01*
X0107467Y0194266D01*
X0107384Y0194238D01*
X0107303Y0194207D01*
X0107223Y0194172D01*
X0107145Y0194133D01*
X0107068Y0194091D01*
X0106993Y0194046D01*
X0106921Y0193997D01*
X0106850Y0193946D01*
X0106782Y0193891D01*
X0106717Y0193834D01*
X0106654Y0193773D01*
X0106593Y0193710D01*
X0106536Y0193645D01*
X0106481Y0193577D01*
X0106430Y0193506D01*
X0106381Y0193434D01*
X0106336Y0193359D01*
X0106294Y0193282D01*
X0106255Y0193204D01*
X0106220Y0193124D01*
X0106189Y0193043D01*
X0106161Y0192960D01*
X0106136Y0192877D01*
X0106115Y0192792D01*
X0106098Y0192706D01*
X0106085Y0192620D01*
X0106076Y0192533D01*
X0106070Y0192446D01*
X0106068Y0192359D01*
X0106068Y0191459D01*
X0106068Y0189359D02*
X0106068Y0185959D01*
X0108068Y0184359D02*
X0107981Y0184357D01*
X0107894Y0184351D01*
X0107807Y0184342D01*
X0107721Y0184329D01*
X0107635Y0184312D01*
X0107550Y0184291D01*
X0107467Y0184266D01*
X0107384Y0184238D01*
X0107303Y0184207D01*
X0107223Y0184172D01*
X0107145Y0184133D01*
X0107068Y0184091D01*
X0106993Y0184046D01*
X0106921Y0183997D01*
X0106850Y0183946D01*
X0106782Y0183891D01*
X0106717Y0183834D01*
X0106654Y0183773D01*
X0106593Y0183710D01*
X0106536Y0183645D01*
X0106481Y0183577D01*
X0106430Y0183506D01*
X0106381Y0183434D01*
X0106336Y0183359D01*
X0106294Y0183282D01*
X0106255Y0183204D01*
X0106220Y0183124D01*
X0106189Y0183043D01*
X0106161Y0182960D01*
X0106136Y0182877D01*
X0106115Y0182792D01*
X0106098Y0182706D01*
X0106085Y0182620D01*
X0106076Y0182533D01*
X0106070Y0182446D01*
X0106068Y0182359D01*
X0087397Y0181514D02*
X0085145Y0181514D01*
X0078023Y0176014D02*
X0077868Y0176216D01*
X0077718Y0176421D01*
X0077572Y0176630D01*
X0077432Y0176843D01*
X0077298Y0177058D01*
X0077168Y0177278D01*
X0077044Y0177500D01*
X0076925Y0177725D01*
X0076812Y0177953D01*
X0076704Y0178183D01*
X0076602Y0178416D01*
X0076505Y0178652D01*
X0076414Y0178889D01*
X0076329Y0179129D01*
X0076250Y0179371D01*
X0076177Y0179615D01*
X0076110Y0179860D01*
X0076049Y0180107D01*
X0075993Y0180356D01*
X0075944Y0180605D01*
X0075901Y0180856D01*
X0075864Y0181108D01*
X0075833Y0181361D01*
X0075808Y0181614D01*
X0075789Y0181868D01*
X0075776Y0182122D01*
X0075770Y0182376D01*
X0075770Y0182631D01*
X0075776Y0182885D01*
X0075788Y0183139D01*
X0075806Y0183393D01*
X0075830Y0183647D01*
X0075861Y0183899D01*
X0075897Y0184151D01*
X0075940Y0184402D01*
X0075989Y0184652D01*
X0076044Y0184900D01*
X0076105Y0185147D01*
X0076171Y0185393D01*
X0076244Y0185637D01*
X0076323Y0185879D01*
X0076407Y0186119D01*
X0076497Y0186357D01*
X0076593Y0186592D01*
X0076695Y0186826D01*
X0076802Y0187057D01*
X0076915Y0187285D01*
X0077034Y0187510D01*
X0077157Y0187732D01*
X0077287Y0187952D01*
X0077421Y0188168D01*
X0077561Y0188380D01*
X0077705Y0188590D01*
X0077855Y0188795D01*
X0078010Y0188998D01*
X0078169Y0189196D01*
X0078334Y0189390D01*
X0078503Y0189580D01*
X0078676Y0189767D01*
X0078854Y0189948D01*
X0079037Y0190126D01*
X0079223Y0190299D01*
X0079414Y0190468D01*
X0079609Y0190631D01*
X0079807Y0190790D01*
X0080010Y0190945D01*
X0080216Y0191094D01*
X0080426Y0191238D01*
X0080639Y0191377D01*
X0080855Y0191511D01*
X0081075Y0191639D01*
X0081298Y0191763D01*
X0081523Y0191880D01*
X0081752Y0191993D01*
X0081983Y0192099D01*
X0082216Y0192200D01*
X0082452Y0192296D01*
X0082690Y0192385D01*
X0082931Y0192469D01*
X0083173Y0192547D01*
X0089369Y0192547D02*
X0089611Y0192469D01*
X0089852Y0192385D01*
X0090090Y0192296D01*
X0090326Y0192200D01*
X0090559Y0192099D01*
X0090790Y0191993D01*
X0091019Y0191880D01*
X0091244Y0191763D01*
X0091467Y0191639D01*
X0091687Y0191511D01*
X0091903Y0191377D01*
X0092116Y0191238D01*
X0092326Y0191094D01*
X0092532Y0190945D01*
X0092735Y0190790D01*
X0092933Y0190631D01*
X0093128Y0190468D01*
X0093319Y0190299D01*
X0093505Y0190126D01*
X0093688Y0189948D01*
X0093866Y0189767D01*
X0094039Y0189580D01*
X0094208Y0189390D01*
X0094373Y0189196D01*
X0094532Y0188998D01*
X0094687Y0188795D01*
X0094837Y0188590D01*
X0094981Y0188380D01*
X0095121Y0188168D01*
X0095255Y0187952D01*
X0095385Y0187732D01*
X0095508Y0187510D01*
X0095627Y0187285D01*
X0095740Y0187057D01*
X0095847Y0186826D01*
X0095949Y0186592D01*
X0096045Y0186357D01*
X0096135Y0186119D01*
X0096219Y0185879D01*
X0096298Y0185637D01*
X0096371Y0185393D01*
X0096437Y0185147D01*
X0096498Y0184900D01*
X0096553Y0184652D01*
X0096602Y0184402D01*
X0096645Y0184151D01*
X0096681Y0183899D01*
X0096712Y0183647D01*
X0096736Y0183393D01*
X0096754Y0183139D01*
X0096766Y0182885D01*
X0096772Y0182631D01*
X0096772Y0182376D01*
X0096766Y0182122D01*
X0096753Y0181868D01*
X0096734Y0181614D01*
X0096709Y0181361D01*
X0096678Y0181108D01*
X0096641Y0180856D01*
X0096598Y0180605D01*
X0096549Y0180356D01*
X0096493Y0180107D01*
X0096432Y0179860D01*
X0096365Y0179615D01*
X0096292Y0179371D01*
X0096213Y0179129D01*
X0096128Y0178889D01*
X0096037Y0178652D01*
X0095940Y0178416D01*
X0095838Y0178183D01*
X0095730Y0177953D01*
X0095617Y0177725D01*
X0095498Y0177500D01*
X0095374Y0177278D01*
X0095244Y0177058D01*
X0095110Y0176843D01*
X0094970Y0176630D01*
X0094824Y0176421D01*
X0094674Y0176216D01*
X0094519Y0176014D01*
X0124370Y0170827D02*
X0124870Y0170827D01*
X0124870Y0167327D01*
X0135870Y0167327D01*
X0135870Y0170827D01*
X0135870Y0174327D01*
X0124870Y0174327D01*
X0124870Y0170827D01*
X0135870Y0170827D02*
X0136370Y0170827D01*
X0156564Y0209636D02*
X0160835Y0209636D01*
X0158699Y0209636D02*
X0158699Y0216042D01*
X0156564Y0213907D01*
X0163010Y0213907D02*
X0163010Y0214974D01*
X0164077Y0216042D01*
X0166213Y0216042D01*
X0167280Y0214974D01*
X0167280Y0213907D01*
X0166213Y0212839D01*
X0164077Y0212839D01*
X0163010Y0213907D01*
X0164077Y0212839D02*
X0163010Y0211771D01*
X0163010Y0210704D01*
X0164077Y0209636D01*
X0166213Y0209636D01*
X0167280Y0210704D01*
X0167280Y0211771D01*
X0166213Y0212839D01*
X0169455Y0212839D02*
X0173726Y0212839D01*
X0175901Y0214974D02*
X0176968Y0216042D01*
X0179104Y0216042D01*
X0180171Y0214974D01*
X0180171Y0213907D01*
X0179104Y0212839D01*
X0180171Y0211771D01*
X0180171Y0210704D01*
X0179104Y0209636D01*
X0176968Y0209636D01*
X0175901Y0210704D01*
X0178036Y0212839D02*
X0179104Y0212839D01*
X0182346Y0210704D02*
X0182346Y0214974D01*
X0183414Y0216042D01*
X0185549Y0216042D01*
X0186617Y0214974D01*
X0182346Y0210704D01*
X0183414Y0209636D01*
X0185549Y0209636D01*
X0186617Y0210704D01*
X0186617Y0214974D01*
X0188792Y0216042D02*
X0188792Y0211771D01*
X0190927Y0209636D01*
X0193062Y0211771D01*
X0193062Y0216042D01*
X0170924Y0288251D02*
X0169856Y0289318D01*
X0169856Y0293589D01*
X0168788Y0292521D02*
X0170924Y0292521D01*
X0171985Y0298751D02*
X0167714Y0298751D01*
X0171985Y0303021D01*
X0167714Y0303021D01*
X0165539Y0301953D02*
X0161269Y0301953D01*
X0161269Y0298751D02*
X0161269Y0305156D01*
X0159094Y0305156D02*
X0159094Y0298751D01*
X0159100Y0294656D02*
X0156965Y0294656D01*
X0155898Y0293589D01*
X0155898Y0289318D01*
X0156965Y0288251D01*
X0159100Y0288251D01*
X0160168Y0289318D01*
X0160168Y0293589D01*
X0159100Y0294656D01*
X0162343Y0292521D02*
X0162343Y0289318D01*
X0163411Y0288251D01*
X0166613Y0288251D01*
X0166613Y0292521D01*
X0165539Y0298751D02*
X0165539Y0305156D01*
X0165559Y0309251D02*
X0164491Y0310318D01*
X0165559Y0309251D02*
X0167694Y0309251D01*
X0168762Y0310318D01*
X0168762Y0312453D01*
X0167694Y0313521D01*
X0166627Y0313521D01*
X0164491Y0312453D01*
X0164491Y0315656D01*
X0168762Y0315656D01*
X0162316Y0314589D02*
X0161249Y0315656D01*
X0159114Y0315656D01*
X0158046Y0314589D01*
X0162316Y0313521D02*
X0158046Y0309251D01*
X0162316Y0309251D01*
X0162316Y0313521D02*
X0162316Y0314589D01*
X0159094Y0305156D02*
X0156958Y0303021D01*
X0154823Y0305156D01*
X0154823Y0298751D01*
X0145795Y0297624D02*
X0145795Y0293354D01*
X0144727Y0292286D01*
X0141524Y0292286D01*
X0141524Y0298692D01*
X0144727Y0298692D01*
X0145795Y0297624D01*
X0144727Y0302786D02*
X0141524Y0302786D01*
X0141524Y0309192D01*
X0144727Y0309192D01*
X0145795Y0308124D01*
X0145795Y0307057D01*
X0144727Y0305989D01*
X0141524Y0305989D01*
X0144727Y0305989D02*
X0145795Y0304921D01*
X0145795Y0303854D01*
X0144727Y0302786D01*
X0139349Y0302786D02*
X0139349Y0309192D01*
X0135079Y0309192D02*
X0135079Y0302786D01*
X0132904Y0302786D02*
X0128633Y0302786D01*
X0128633Y0309192D01*
X0135079Y0309192D02*
X0139349Y0302786D01*
X0139349Y0298692D02*
X0135079Y0298692D01*
X0135079Y0292286D01*
X0139349Y0292286D01*
X0137214Y0295489D02*
X0135079Y0295489D01*
X0132904Y0295489D02*
X0131836Y0294421D01*
X0128633Y0294421D01*
X0128633Y0292286D02*
X0128633Y0298692D01*
X0131836Y0298692D01*
X0132904Y0297624D01*
X0132904Y0295489D01*
X0130769Y0294421D02*
X0132904Y0292286D01*
X0130176Y0265856D02*
X0117176Y0265856D01*
X0117089Y0265854D01*
X0117002Y0265848D01*
X0116915Y0265839D01*
X0116829Y0265826D01*
X0116743Y0265809D01*
X0116658Y0265788D01*
X0116575Y0265763D01*
X0116492Y0265735D01*
X0116411Y0265704D01*
X0116331Y0265669D01*
X0116253Y0265630D01*
X0116176Y0265588D01*
X0116101Y0265543D01*
X0116029Y0265494D01*
X0115958Y0265443D01*
X0115890Y0265388D01*
X0115825Y0265331D01*
X0115762Y0265270D01*
X0115701Y0265207D01*
X0115644Y0265142D01*
X0115589Y0265074D01*
X0115538Y0265003D01*
X0115489Y0264931D01*
X0115444Y0264856D01*
X0115402Y0264779D01*
X0115363Y0264701D01*
X0115328Y0264621D01*
X0115297Y0264540D01*
X0115269Y0264457D01*
X0115244Y0264374D01*
X0115223Y0264289D01*
X0115206Y0264203D01*
X0115193Y0264117D01*
X0115184Y0264030D01*
X0115178Y0263943D01*
X0115176Y0263856D01*
X0113576Y0265856D02*
X0110176Y0265856D01*
X0108076Y0265856D02*
X0107176Y0265856D01*
X0107089Y0265854D01*
X0107002Y0265848D01*
X0106915Y0265839D01*
X0106829Y0265826D01*
X0106743Y0265809D01*
X0106658Y0265788D01*
X0106575Y0265763D01*
X0106492Y0265735D01*
X0106411Y0265704D01*
X0106331Y0265669D01*
X0106253Y0265630D01*
X0106176Y0265588D01*
X0106101Y0265543D01*
X0106029Y0265494D01*
X0105958Y0265443D01*
X0105890Y0265388D01*
X0105825Y0265331D01*
X0105762Y0265270D01*
X0105701Y0265207D01*
X0105644Y0265142D01*
X0105589Y0265074D01*
X0105538Y0265003D01*
X0105489Y0264931D01*
X0105444Y0264856D01*
X0105402Y0264779D01*
X0105363Y0264701D01*
X0105328Y0264621D01*
X0105297Y0264540D01*
X0105269Y0264457D01*
X0105244Y0264374D01*
X0105223Y0264289D01*
X0105206Y0264203D01*
X0105193Y0264117D01*
X0105184Y0264030D01*
X0105178Y0263943D01*
X0105176Y0263856D01*
X0105176Y0258856D01*
X0105178Y0258769D01*
X0105184Y0258682D01*
X0105193Y0258595D01*
X0105206Y0258509D01*
X0105223Y0258423D01*
X0105244Y0258338D01*
X0105269Y0258255D01*
X0105297Y0258172D01*
X0105328Y0258091D01*
X0105363Y0258011D01*
X0105402Y0257933D01*
X0105444Y0257856D01*
X0105489Y0257781D01*
X0105538Y0257709D01*
X0105589Y0257638D01*
X0105644Y0257570D01*
X0105701Y0257505D01*
X0105762Y0257442D01*
X0105825Y0257381D01*
X0105890Y0257324D01*
X0105958Y0257269D01*
X0106029Y0257218D01*
X0106101Y0257169D01*
X0106176Y0257124D01*
X0106253Y0257082D01*
X0106331Y0257043D01*
X0106411Y0257008D01*
X0106492Y0256977D01*
X0106575Y0256949D01*
X0106658Y0256924D01*
X0106743Y0256903D01*
X0106829Y0256886D01*
X0106915Y0256873D01*
X0107002Y0256864D01*
X0107089Y0256858D01*
X0107176Y0256856D01*
X0108076Y0256856D01*
X0110176Y0256856D02*
X0113576Y0256856D01*
X0117176Y0256856D02*
X0130176Y0256856D01*
X0130263Y0256858D01*
X0130350Y0256864D01*
X0130437Y0256873D01*
X0130523Y0256886D01*
X0130609Y0256903D01*
X0130694Y0256924D01*
X0130777Y0256949D01*
X0130860Y0256977D01*
X0130941Y0257008D01*
X0131021Y0257043D01*
X0131099Y0257082D01*
X0131176Y0257124D01*
X0131251Y0257169D01*
X0131323Y0257218D01*
X0131394Y0257269D01*
X0131462Y0257324D01*
X0131527Y0257381D01*
X0131590Y0257442D01*
X0131651Y0257505D01*
X0131708Y0257570D01*
X0131763Y0257638D01*
X0131814Y0257709D01*
X0131863Y0257781D01*
X0131908Y0257856D01*
X0131950Y0257933D01*
X0131989Y0258011D01*
X0132024Y0258091D01*
X0132055Y0258172D01*
X0132083Y0258255D01*
X0132108Y0258338D01*
X0132129Y0258423D01*
X0132146Y0258509D01*
X0132159Y0258595D01*
X0132168Y0258682D01*
X0132174Y0258769D01*
X0132176Y0258856D01*
X0132176Y0263856D02*
X0132174Y0263943D01*
X0132168Y0264030D01*
X0132159Y0264117D01*
X0132146Y0264203D01*
X0132129Y0264289D01*
X0132108Y0264374D01*
X0132083Y0264457D01*
X0132055Y0264540D01*
X0132024Y0264621D01*
X0131989Y0264701D01*
X0131950Y0264779D01*
X0131908Y0264856D01*
X0131863Y0264931D01*
X0131814Y0265003D01*
X0131763Y0265074D01*
X0131708Y0265142D01*
X0131651Y0265207D01*
X0131590Y0265270D01*
X0131527Y0265331D01*
X0131462Y0265388D01*
X0131394Y0265443D01*
X0131323Y0265494D01*
X0131251Y0265543D01*
X0131176Y0265588D01*
X0131099Y0265630D01*
X0131021Y0265669D01*
X0130941Y0265704D01*
X0130860Y0265735D01*
X0130777Y0265763D01*
X0130694Y0265788D01*
X0130609Y0265809D01*
X0130523Y0265826D01*
X0130437Y0265839D01*
X0130350Y0265848D01*
X0130263Y0265854D01*
X0130176Y0265856D01*
X0117176Y0256856D02*
X0117089Y0256858D01*
X0117002Y0256864D01*
X0116915Y0256873D01*
X0116829Y0256886D01*
X0116743Y0256903D01*
X0116658Y0256924D01*
X0116575Y0256949D01*
X0116492Y0256977D01*
X0116411Y0257008D01*
X0116331Y0257043D01*
X0116253Y0257082D01*
X0116176Y0257124D01*
X0116101Y0257169D01*
X0116029Y0257218D01*
X0115958Y0257269D01*
X0115890Y0257324D01*
X0115825Y0257381D01*
X0115762Y0257442D01*
X0115701Y0257505D01*
X0115644Y0257570D01*
X0115589Y0257638D01*
X0115538Y0257709D01*
X0115489Y0257781D01*
X0115444Y0257856D01*
X0115402Y0257933D01*
X0115363Y0258011D01*
X0115328Y0258091D01*
X0115297Y0258172D01*
X0115269Y0258255D01*
X0115244Y0258338D01*
X0115223Y0258423D01*
X0115206Y0258509D01*
X0115193Y0258595D01*
X0115184Y0258682D01*
X0115178Y0258769D01*
X0115176Y0258856D01*
X0119642Y0230412D02*
X0103146Y0230412D01*
X0102520Y0224912D02*
X0100942Y0224912D01*
X0110268Y0224912D02*
X0112520Y0224912D01*
X0119642Y0230412D02*
X0119797Y0230210D01*
X0119947Y0230005D01*
X0120093Y0229796D01*
X0120233Y0229583D01*
X0120367Y0229368D01*
X0120497Y0229148D01*
X0120621Y0228926D01*
X0120740Y0228701D01*
X0120853Y0228473D01*
X0120961Y0228243D01*
X0121063Y0228010D01*
X0121160Y0227774D01*
X0121251Y0227537D01*
X0121336Y0227297D01*
X0121415Y0227055D01*
X0121488Y0226811D01*
X0121555Y0226566D01*
X0121616Y0226319D01*
X0121672Y0226070D01*
X0121721Y0225821D01*
X0121764Y0225570D01*
X0121801Y0225318D01*
X0121832Y0225065D01*
X0121857Y0224812D01*
X0121876Y0224558D01*
X0121889Y0224304D01*
X0121895Y0224050D01*
X0121895Y0223795D01*
X0121889Y0223541D01*
X0121877Y0223287D01*
X0121859Y0223033D01*
X0121835Y0222779D01*
X0121804Y0222527D01*
X0121768Y0222275D01*
X0121725Y0222024D01*
X0121676Y0221774D01*
X0121621Y0221526D01*
X0121560Y0221279D01*
X0121494Y0221033D01*
X0121421Y0220789D01*
X0121342Y0220547D01*
X0121258Y0220307D01*
X0121168Y0220069D01*
X0121072Y0219834D01*
X0120970Y0219600D01*
X0120863Y0219369D01*
X0120750Y0219141D01*
X0120631Y0218916D01*
X0120508Y0218694D01*
X0120378Y0218474D01*
X0120244Y0218258D01*
X0120104Y0218046D01*
X0119960Y0217836D01*
X0119810Y0217631D01*
X0119655Y0217428D01*
X0119496Y0217230D01*
X0119331Y0217036D01*
X0119162Y0216846D01*
X0118989Y0216659D01*
X0118811Y0216478D01*
X0118628Y0216300D01*
X0118442Y0216127D01*
X0118251Y0215958D01*
X0118056Y0215795D01*
X0117858Y0215636D01*
X0117655Y0215481D01*
X0117449Y0215332D01*
X0117239Y0215188D01*
X0117026Y0215049D01*
X0116810Y0214915D01*
X0116590Y0214787D01*
X0116367Y0214663D01*
X0116142Y0214546D01*
X0115913Y0214433D01*
X0115682Y0214327D01*
X0115449Y0214226D01*
X0115213Y0214130D01*
X0114975Y0214041D01*
X0114734Y0213957D01*
X0114492Y0213879D01*
X0108296Y0213879D02*
X0108054Y0213957D01*
X0107813Y0214041D01*
X0107575Y0214130D01*
X0107339Y0214226D01*
X0107106Y0214327D01*
X0106875Y0214433D01*
X0106646Y0214546D01*
X0106421Y0214663D01*
X0106198Y0214787D01*
X0105978Y0214915D01*
X0105762Y0215049D01*
X0105549Y0215188D01*
X0105339Y0215332D01*
X0105133Y0215481D01*
X0104930Y0215636D01*
X0104732Y0215795D01*
X0104537Y0215958D01*
X0104346Y0216127D01*
X0104160Y0216300D01*
X0103977Y0216478D01*
X0103799Y0216659D01*
X0103626Y0216846D01*
X0103457Y0217036D01*
X0103292Y0217230D01*
X0103133Y0217428D01*
X0102978Y0217631D01*
X0102828Y0217836D01*
X0102684Y0218046D01*
X0102544Y0218258D01*
X0102410Y0218474D01*
X0102280Y0218694D01*
X0102157Y0218916D01*
X0102038Y0219141D01*
X0101925Y0219369D01*
X0101818Y0219600D01*
X0101716Y0219834D01*
X0101620Y0220069D01*
X0101530Y0220307D01*
X0101446Y0220547D01*
X0101367Y0220789D01*
X0101294Y0221033D01*
X0101228Y0221279D01*
X0101167Y0221526D01*
X0101112Y0221774D01*
X0101063Y0222024D01*
X0101020Y0222275D01*
X0100984Y0222527D01*
X0100953Y0222779D01*
X0100929Y0223033D01*
X0100911Y0223287D01*
X0100899Y0223541D01*
X0100893Y0223795D01*
X0100893Y0224050D01*
X0100899Y0224304D01*
X0100912Y0224558D01*
X0100931Y0224812D01*
X0100956Y0225065D01*
X0100987Y0225318D01*
X0101024Y0225570D01*
X0101067Y0225821D01*
X0101116Y0226070D01*
X0101172Y0226319D01*
X0101233Y0226566D01*
X0101300Y0226811D01*
X0101373Y0227055D01*
X0101452Y0227297D01*
X0101537Y0227537D01*
X0101628Y0227774D01*
X0101725Y0228010D01*
X0101827Y0228243D01*
X0101935Y0228473D01*
X0102048Y0228701D01*
X0102167Y0228926D01*
X0102291Y0229148D01*
X0102421Y0229368D01*
X0102555Y0229583D01*
X0102695Y0229796D01*
X0102841Y0230005D01*
X0102991Y0230210D01*
X0103146Y0230412D01*
X0120268Y0224912D02*
X0121847Y0224912D01*
X0175171Y0291820D02*
X0183171Y0291820D01*
X0184171Y0292820D01*
X0184171Y0300820D01*
X0183171Y0301820D01*
X0184171Y0302820D01*
X0184171Y0310820D01*
X0183171Y0311820D01*
X0175171Y0311820D01*
X0174171Y0310820D01*
X0174171Y0302820D01*
X0175171Y0301820D01*
X0174171Y0300820D01*
X0174171Y0292820D01*
X0175171Y0291820D01*
X0069111Y0297706D02*
X0066976Y0299841D01*
X0068044Y0299841D02*
X0064841Y0299841D01*
X0064841Y0297706D02*
X0064841Y0304111D01*
X0068044Y0304111D01*
X0069111Y0303044D01*
X0069111Y0300909D01*
X0068044Y0299841D01*
X0063740Y0308206D02*
X0059470Y0308206D01*
X0059470Y0314611D01*
X0063740Y0314611D01*
X0061605Y0311409D02*
X0059470Y0311409D01*
X0057295Y0313544D02*
X0057295Y0314611D01*
X0057295Y0313544D02*
X0055159Y0311409D01*
X0055159Y0308206D01*
X0055159Y0311409D02*
X0053024Y0313544D01*
X0053024Y0314611D01*
X0050849Y0314611D02*
X0046579Y0314611D01*
X0046579Y0308206D01*
X0050849Y0308206D01*
X0048714Y0311409D02*
X0046579Y0311409D01*
X0044404Y0310341D02*
X0044404Y0309274D01*
X0043336Y0308206D01*
X0041201Y0308206D01*
X0040133Y0309274D01*
X0041201Y0311409D02*
X0040133Y0312476D01*
X0040133Y0313544D01*
X0041201Y0314611D01*
X0043336Y0314611D01*
X0044404Y0313544D01*
X0043336Y0311409D02*
X0041201Y0311409D01*
X0043336Y0311409D02*
X0044404Y0310341D01*
X0042262Y0304111D02*
X0039059Y0304111D01*
X0039059Y0297706D01*
X0039059Y0299841D02*
X0042262Y0299841D01*
X0043329Y0300909D01*
X0043329Y0303044D01*
X0042262Y0304111D01*
X0041194Y0299841D02*
X0043329Y0297706D01*
X0045505Y0297706D02*
X0045505Y0301976D01*
X0047640Y0304111D01*
X0049775Y0301976D01*
X0049775Y0297706D01*
X0049775Y0300909D02*
X0045505Y0300909D01*
X0047626Y0293611D02*
X0047626Y0287206D01*
X0049802Y0287206D02*
X0054072Y0287206D01*
X0049802Y0287206D02*
X0049802Y0293611D01*
X0047626Y0293611D02*
X0045491Y0291476D01*
X0043356Y0293611D01*
X0043356Y0287206D01*
X0041181Y0287206D02*
X0036911Y0287206D01*
X0036911Y0293611D01*
X0041181Y0293611D01*
X0039046Y0290409D02*
X0036911Y0290409D01*
X0034735Y0290409D02*
X0030465Y0290409D01*
X0033668Y0293611D01*
X0033668Y0287206D01*
X0028290Y0288274D02*
X0028290Y0290409D01*
X0026155Y0290409D01*
X0028290Y0292544D02*
X0027222Y0293611D01*
X0025087Y0293611D01*
X0024020Y0292544D01*
X0024020Y0288274D01*
X0025087Y0287206D01*
X0027222Y0287206D01*
X0028290Y0288274D01*
X0028317Y0297706D02*
X0030452Y0297706D01*
X0029384Y0297706D02*
X0029384Y0304111D01*
X0028317Y0304111D02*
X0030452Y0304111D01*
X0032614Y0304111D02*
X0035816Y0304111D01*
X0036884Y0303044D01*
X0036884Y0301976D01*
X0035816Y0300909D01*
X0032614Y0300909D01*
X0032614Y0304111D02*
X0032614Y0297706D01*
X0035816Y0297706D01*
X0036884Y0298774D01*
X0036884Y0299841D01*
X0035816Y0300909D01*
X0033688Y0308206D02*
X0037958Y0308206D01*
X0033688Y0308206D02*
X0033688Y0314611D01*
X0031513Y0308206D02*
X0027242Y0308206D01*
X0027242Y0314611D01*
X0025067Y0314611D02*
X0025067Y0309274D01*
X0024000Y0308206D01*
X0021864Y0308206D01*
X0020797Y0309274D01*
X0020797Y0314611D01*
X0018622Y0313544D02*
X0018622Y0312476D01*
X0017554Y0311409D01*
X0014351Y0311409D01*
X0014351Y0314611D02*
X0014351Y0308206D01*
X0017554Y0308206D01*
X0018622Y0309274D01*
X0018622Y0310341D01*
X0017554Y0311409D01*
X0018622Y0313544D02*
X0017554Y0314611D01*
X0014351Y0314611D01*
X0012183Y0304111D02*
X0010048Y0304111D01*
X0008980Y0303044D01*
X0008980Y0298774D01*
X0010048Y0297706D01*
X0012183Y0297706D01*
X0013250Y0298774D01*
X0015426Y0297706D02*
X0015426Y0301976D01*
X0017561Y0304111D01*
X0019696Y0301976D01*
X0019696Y0297706D01*
X0021871Y0297706D02*
X0026141Y0297706D01*
X0021871Y0297706D02*
X0021871Y0304111D01*
X0019696Y0300909D02*
X0015426Y0300909D01*
X0013250Y0303044D02*
X0012183Y0304111D01*
X0051950Y0304111D02*
X0056220Y0304111D01*
X0054085Y0304111D02*
X0054085Y0297706D01*
X0058396Y0298774D02*
X0058396Y0303044D01*
X0059463Y0304111D01*
X0061598Y0304111D01*
X0062666Y0303044D01*
X0062666Y0298774D01*
X0061598Y0297706D01*
X0059463Y0297706D01*
X0058396Y0298774D01*
X0049392Y0221593D02*
X0049392Y0220015D01*
X0054892Y0219389D02*
X0054892Y0202892D01*
X0049392Y0202266D02*
X0049392Y0200688D01*
X0049392Y0210015D02*
X0049392Y0212266D01*
X0054892Y0219388D02*
X0054690Y0219543D01*
X0054485Y0219693D01*
X0054276Y0219839D01*
X0054063Y0219979D01*
X0053848Y0220113D01*
X0053628Y0220243D01*
X0053406Y0220367D01*
X0053181Y0220486D01*
X0052953Y0220599D01*
X0052723Y0220707D01*
X0052490Y0220809D01*
X0052254Y0220906D01*
X0052017Y0220997D01*
X0051777Y0221082D01*
X0051535Y0221161D01*
X0051291Y0221234D01*
X0051046Y0221301D01*
X0050799Y0221362D01*
X0050550Y0221418D01*
X0050301Y0221467D01*
X0050050Y0221510D01*
X0049798Y0221547D01*
X0049545Y0221578D01*
X0049292Y0221603D01*
X0049038Y0221622D01*
X0048784Y0221635D01*
X0048530Y0221641D01*
X0048275Y0221641D01*
X0048021Y0221635D01*
X0047767Y0221623D01*
X0047513Y0221605D01*
X0047259Y0221581D01*
X0047007Y0221550D01*
X0046755Y0221514D01*
X0046504Y0221471D01*
X0046254Y0221422D01*
X0046006Y0221367D01*
X0045759Y0221306D01*
X0045513Y0221240D01*
X0045269Y0221167D01*
X0045027Y0221088D01*
X0044787Y0221004D01*
X0044549Y0220914D01*
X0044314Y0220818D01*
X0044080Y0220716D01*
X0043849Y0220609D01*
X0043621Y0220496D01*
X0043396Y0220377D01*
X0043174Y0220254D01*
X0042954Y0220124D01*
X0042738Y0219990D01*
X0042526Y0219850D01*
X0042316Y0219706D01*
X0042111Y0219556D01*
X0041908Y0219401D01*
X0041710Y0219242D01*
X0041516Y0219077D01*
X0041326Y0218908D01*
X0041139Y0218735D01*
X0040958Y0218557D01*
X0040780Y0218374D01*
X0040607Y0218188D01*
X0040438Y0217997D01*
X0040275Y0217802D01*
X0040116Y0217604D01*
X0039961Y0217401D01*
X0039812Y0217195D01*
X0039668Y0216985D01*
X0039529Y0216772D01*
X0039395Y0216556D01*
X0039267Y0216336D01*
X0039143Y0216113D01*
X0039026Y0215888D01*
X0038913Y0215659D01*
X0038807Y0215428D01*
X0038706Y0215195D01*
X0038610Y0214959D01*
X0038521Y0214721D01*
X0038437Y0214480D01*
X0038359Y0214238D01*
X0038359Y0208043D02*
X0038437Y0207801D01*
X0038521Y0207560D01*
X0038610Y0207322D01*
X0038706Y0207086D01*
X0038807Y0206853D01*
X0038913Y0206622D01*
X0039026Y0206393D01*
X0039143Y0206168D01*
X0039267Y0205945D01*
X0039395Y0205725D01*
X0039529Y0205509D01*
X0039668Y0205296D01*
X0039812Y0205086D01*
X0039961Y0204880D01*
X0040116Y0204677D01*
X0040275Y0204479D01*
X0040438Y0204284D01*
X0040607Y0204093D01*
X0040780Y0203907D01*
X0040958Y0203724D01*
X0041139Y0203546D01*
X0041326Y0203373D01*
X0041516Y0203204D01*
X0041710Y0203039D01*
X0041908Y0202880D01*
X0042111Y0202725D01*
X0042316Y0202575D01*
X0042526Y0202431D01*
X0042738Y0202291D01*
X0042954Y0202157D01*
X0043174Y0202027D01*
X0043396Y0201904D01*
X0043621Y0201785D01*
X0043849Y0201672D01*
X0044080Y0201565D01*
X0044314Y0201463D01*
X0044549Y0201367D01*
X0044787Y0201277D01*
X0045027Y0201193D01*
X0045269Y0201114D01*
X0045513Y0201041D01*
X0045759Y0200975D01*
X0046006Y0200914D01*
X0046254Y0200859D01*
X0046504Y0200810D01*
X0046755Y0200767D01*
X0047007Y0200731D01*
X0047259Y0200700D01*
X0047513Y0200676D01*
X0047767Y0200658D01*
X0048021Y0200646D01*
X0048275Y0200640D01*
X0048530Y0200640D01*
X0048784Y0200646D01*
X0049038Y0200659D01*
X0049292Y0200678D01*
X0049545Y0200703D01*
X0049798Y0200734D01*
X0050050Y0200771D01*
X0050301Y0200814D01*
X0050550Y0200863D01*
X0050799Y0200919D01*
X0051046Y0200980D01*
X0051291Y0201047D01*
X0051535Y0201120D01*
X0051777Y0201199D01*
X0052017Y0201284D01*
X0052254Y0201375D01*
X0052490Y0201472D01*
X0052723Y0201574D01*
X0052953Y0201682D01*
X0053181Y0201795D01*
X0053406Y0201914D01*
X0053628Y0202038D01*
X0053848Y0202168D01*
X0054063Y0202302D01*
X0054276Y0202442D01*
X0054485Y0202588D01*
X0054690Y0202738D01*
X0054892Y0202893D01*
X0157840Y0046600D02*
X0157840Y0043100D01*
X0157840Y0033100D01*
X0157840Y0029600D01*
X0165840Y0026100D02*
X0166840Y0026100D01*
X0166840Y0025100D01*
X0172840Y0025100D01*
X0172840Y0026100D01*
X0173840Y0026100D01*
X0181840Y0029600D02*
X0181840Y0033100D01*
X0181840Y0042600D01*
X0181840Y0046600D01*
X0173840Y0050100D02*
X0172840Y0050100D01*
X0172840Y0051100D01*
X0166840Y0051100D01*
X0166840Y0050100D01*
X0165840Y0050100D01*
X0168840Y0038100D02*
X0168842Y0038163D01*
X0168848Y0038225D01*
X0168858Y0038287D01*
X0168871Y0038349D01*
X0168889Y0038409D01*
X0168910Y0038468D01*
X0168935Y0038526D01*
X0168964Y0038582D01*
X0168996Y0038636D01*
X0169031Y0038688D01*
X0169069Y0038737D01*
X0169111Y0038785D01*
X0169155Y0038829D01*
X0169203Y0038871D01*
X0169252Y0038909D01*
X0169304Y0038944D01*
X0169358Y0038976D01*
X0169414Y0039005D01*
X0169472Y0039030D01*
X0169531Y0039051D01*
X0169591Y0039069D01*
X0169653Y0039082D01*
X0169715Y0039092D01*
X0169777Y0039098D01*
X0169840Y0039100D01*
X0169903Y0039098D01*
X0169965Y0039092D01*
X0170027Y0039082D01*
X0170089Y0039069D01*
X0170149Y0039051D01*
X0170208Y0039030D01*
X0170266Y0039005D01*
X0170322Y0038976D01*
X0170376Y0038944D01*
X0170428Y0038909D01*
X0170477Y0038871D01*
X0170525Y0038829D01*
X0170569Y0038785D01*
X0170611Y0038737D01*
X0170649Y0038688D01*
X0170684Y0038636D01*
X0170716Y0038582D01*
X0170745Y0038526D01*
X0170770Y0038468D01*
X0170791Y0038409D01*
X0170809Y0038349D01*
X0170822Y0038287D01*
X0170832Y0038225D01*
X0170838Y0038163D01*
X0170840Y0038100D01*
X0170838Y0038037D01*
X0170832Y0037975D01*
X0170822Y0037913D01*
X0170809Y0037851D01*
X0170791Y0037791D01*
X0170770Y0037732D01*
X0170745Y0037674D01*
X0170716Y0037618D01*
X0170684Y0037564D01*
X0170649Y0037512D01*
X0170611Y0037463D01*
X0170569Y0037415D01*
X0170525Y0037371D01*
X0170477Y0037329D01*
X0170428Y0037291D01*
X0170376Y0037256D01*
X0170322Y0037224D01*
X0170266Y0037195D01*
X0170208Y0037170D01*
X0170149Y0037149D01*
X0170089Y0037131D01*
X0170027Y0037118D01*
X0169965Y0037108D01*
X0169903Y0037102D01*
X0169840Y0037100D01*
X0169777Y0037102D01*
X0169715Y0037108D01*
X0169653Y0037118D01*
X0169591Y0037131D01*
X0169531Y0037149D01*
X0169472Y0037170D01*
X0169414Y0037195D01*
X0169358Y0037224D01*
X0169304Y0037256D01*
X0169252Y0037291D01*
X0169203Y0037329D01*
X0169155Y0037371D01*
X0169111Y0037415D01*
X0169069Y0037463D01*
X0169031Y0037512D01*
X0168996Y0037564D01*
X0168964Y0037618D01*
X0168935Y0037674D01*
X0168910Y0037732D01*
X0168889Y0037791D01*
X0168871Y0037851D01*
X0168858Y0037913D01*
X0168848Y0037975D01*
X0168842Y0038037D01*
X0168840Y0038100D01*
X0162840Y0038100D02*
X0162842Y0038272D01*
X0162848Y0038443D01*
X0162859Y0038615D01*
X0162874Y0038786D01*
X0162893Y0038957D01*
X0162916Y0039127D01*
X0162943Y0039297D01*
X0162975Y0039466D01*
X0163010Y0039634D01*
X0163050Y0039801D01*
X0163094Y0039967D01*
X0163141Y0040132D01*
X0163193Y0040296D01*
X0163249Y0040458D01*
X0163309Y0040619D01*
X0163373Y0040779D01*
X0163441Y0040937D01*
X0163512Y0041093D01*
X0163587Y0041247D01*
X0163667Y0041400D01*
X0163749Y0041550D01*
X0163836Y0041699D01*
X0163926Y0041845D01*
X0164020Y0041989D01*
X0164117Y0042131D01*
X0164218Y0042270D01*
X0164322Y0042407D01*
X0164429Y0042541D01*
X0164540Y0042672D01*
X0164653Y0042801D01*
X0164770Y0042927D01*
X0164890Y0043050D01*
X0165013Y0043170D01*
X0165139Y0043287D01*
X0165268Y0043400D01*
X0165399Y0043511D01*
X0165533Y0043618D01*
X0165670Y0043722D01*
X0165809Y0043823D01*
X0165951Y0043920D01*
X0166095Y0044014D01*
X0166241Y0044104D01*
X0166390Y0044191D01*
X0166540Y0044273D01*
X0166693Y0044353D01*
X0166847Y0044428D01*
X0167003Y0044499D01*
X0167161Y0044567D01*
X0167321Y0044631D01*
X0167482Y0044691D01*
X0167644Y0044747D01*
X0167808Y0044799D01*
X0167973Y0044846D01*
X0168139Y0044890D01*
X0168306Y0044930D01*
X0168474Y0044965D01*
X0168643Y0044997D01*
X0168813Y0045024D01*
X0168983Y0045047D01*
X0169154Y0045066D01*
X0169325Y0045081D01*
X0169497Y0045092D01*
X0169668Y0045098D01*
X0169840Y0045100D01*
X0170012Y0045098D01*
X0170183Y0045092D01*
X0170355Y0045081D01*
X0170526Y0045066D01*
X0170697Y0045047D01*
X0170867Y0045024D01*
X0171037Y0044997D01*
X0171206Y0044965D01*
X0171374Y0044930D01*
X0171541Y0044890D01*
X0171707Y0044846D01*
X0171872Y0044799D01*
X0172036Y0044747D01*
X0172198Y0044691D01*
X0172359Y0044631D01*
X0172519Y0044567D01*
X0172677Y0044499D01*
X0172833Y0044428D01*
X0172987Y0044353D01*
X0173140Y0044273D01*
X0173290Y0044191D01*
X0173439Y0044104D01*
X0173585Y0044014D01*
X0173729Y0043920D01*
X0173871Y0043823D01*
X0174010Y0043722D01*
X0174147Y0043618D01*
X0174281Y0043511D01*
X0174412Y0043400D01*
X0174541Y0043287D01*
X0174667Y0043170D01*
X0174790Y0043050D01*
X0174910Y0042927D01*
X0175027Y0042801D01*
X0175140Y0042672D01*
X0175251Y0042541D01*
X0175358Y0042407D01*
X0175462Y0042270D01*
X0175563Y0042131D01*
X0175660Y0041989D01*
X0175754Y0041845D01*
X0175844Y0041699D01*
X0175931Y0041550D01*
X0176013Y0041400D01*
X0176093Y0041247D01*
X0176168Y0041093D01*
X0176239Y0040937D01*
X0176307Y0040779D01*
X0176371Y0040619D01*
X0176431Y0040458D01*
X0176487Y0040296D01*
X0176539Y0040132D01*
X0176586Y0039967D01*
X0176630Y0039801D01*
X0176670Y0039634D01*
X0176705Y0039466D01*
X0176737Y0039297D01*
X0176764Y0039127D01*
X0176787Y0038957D01*
X0176806Y0038786D01*
X0176821Y0038615D01*
X0176832Y0038443D01*
X0176838Y0038272D01*
X0176840Y0038100D01*
X0176838Y0037928D01*
X0176832Y0037757D01*
X0176821Y0037585D01*
X0176806Y0037414D01*
X0176787Y0037243D01*
X0176764Y0037073D01*
X0176737Y0036903D01*
X0176705Y0036734D01*
X0176670Y0036566D01*
X0176630Y0036399D01*
X0176586Y0036233D01*
X0176539Y0036068D01*
X0176487Y0035904D01*
X0176431Y0035742D01*
X0176371Y0035581D01*
X0176307Y0035421D01*
X0176239Y0035263D01*
X0176168Y0035107D01*
X0176093Y0034953D01*
X0176013Y0034800D01*
X0175931Y0034650D01*
X0175844Y0034501D01*
X0175754Y0034355D01*
X0175660Y0034211D01*
X0175563Y0034069D01*
X0175462Y0033930D01*
X0175358Y0033793D01*
X0175251Y0033659D01*
X0175140Y0033528D01*
X0175027Y0033399D01*
X0174910Y0033273D01*
X0174790Y0033150D01*
X0174667Y0033030D01*
X0174541Y0032913D01*
X0174412Y0032800D01*
X0174281Y0032689D01*
X0174147Y0032582D01*
X0174010Y0032478D01*
X0173871Y0032377D01*
X0173729Y0032280D01*
X0173585Y0032186D01*
X0173439Y0032096D01*
X0173290Y0032009D01*
X0173140Y0031927D01*
X0172987Y0031847D01*
X0172833Y0031772D01*
X0172677Y0031701D01*
X0172519Y0031633D01*
X0172359Y0031569D01*
X0172198Y0031509D01*
X0172036Y0031453D01*
X0171872Y0031401D01*
X0171707Y0031354D01*
X0171541Y0031310D01*
X0171374Y0031270D01*
X0171206Y0031235D01*
X0171037Y0031203D01*
X0170867Y0031176D01*
X0170697Y0031153D01*
X0170526Y0031134D01*
X0170355Y0031119D01*
X0170183Y0031108D01*
X0170012Y0031102D01*
X0169840Y0031100D01*
X0169668Y0031102D01*
X0169497Y0031108D01*
X0169325Y0031119D01*
X0169154Y0031134D01*
X0168983Y0031153D01*
X0168813Y0031176D01*
X0168643Y0031203D01*
X0168474Y0031235D01*
X0168306Y0031270D01*
X0168139Y0031310D01*
X0167973Y0031354D01*
X0167808Y0031401D01*
X0167644Y0031453D01*
X0167482Y0031509D01*
X0167321Y0031569D01*
X0167161Y0031633D01*
X0167003Y0031701D01*
X0166847Y0031772D01*
X0166693Y0031847D01*
X0166540Y0031927D01*
X0166390Y0032009D01*
X0166241Y0032096D01*
X0166095Y0032186D01*
X0165951Y0032280D01*
X0165809Y0032377D01*
X0165670Y0032478D01*
X0165533Y0032582D01*
X0165399Y0032689D01*
X0165268Y0032800D01*
X0165139Y0032913D01*
X0165013Y0033030D01*
X0164890Y0033150D01*
X0164770Y0033273D01*
X0164653Y0033399D01*
X0164540Y0033528D01*
X0164429Y0033659D01*
X0164322Y0033793D01*
X0164218Y0033930D01*
X0164117Y0034069D01*
X0164020Y0034211D01*
X0163926Y0034355D01*
X0163836Y0034501D01*
X0163749Y0034650D01*
X0163667Y0034800D01*
X0163587Y0034953D01*
X0163512Y0035107D01*
X0163441Y0035263D01*
X0163373Y0035421D01*
X0163309Y0035581D01*
X0163249Y0035742D01*
X0163193Y0035904D01*
X0163141Y0036068D01*
X0163094Y0036233D01*
X0163050Y0036399D01*
X0163010Y0036566D01*
X0162975Y0036734D01*
X0162943Y0036903D01*
X0162916Y0037073D01*
X0162893Y0037243D01*
X0162874Y0037414D01*
X0162859Y0037585D01*
X0162848Y0037757D01*
X0162842Y0037928D01*
X0162840Y0038100D01*
D16*
X0158840Y0043100D02*
X0158840Y0033100D01*
X0157840Y0033100D01*
X0157840Y0043100D02*
X0158840Y0043100D01*
X0180840Y0042600D02*
X0180840Y0033100D01*
X0181840Y0033100D01*
X0181840Y0042600D02*
X0180840Y0042600D01*
X0112989Y0042640D02*
X0111989Y0042640D01*
X0111989Y0033140D01*
X0112989Y0033140D01*
X0089989Y0033140D02*
X0089989Y0043140D01*
X0088989Y0043140D01*
X0088989Y0033140D02*
X0089989Y0033140D01*
X0044178Y0033252D02*
X0043178Y0033252D01*
X0043178Y0042752D01*
X0044178Y0042752D01*
X0021178Y0043252D02*
X0021178Y0033252D01*
X0020178Y0033252D01*
X0020178Y0043252D02*
X0021178Y0043252D01*
D17*
X0017428Y0034108D02*
X0017428Y0031106D01*
X0017428Y0032607D02*
X0012924Y0032607D01*
X0014425Y0031106D01*
X0013675Y0029504D02*
X0012924Y0028754D01*
X0012924Y0027252D01*
X0013675Y0026502D01*
X0014425Y0026502D01*
X0015176Y0027252D01*
X0015176Y0028754D01*
X0015926Y0029504D01*
X0016677Y0029504D01*
X0017428Y0028754D01*
X0017428Y0027252D01*
X0016677Y0026502D01*
X0081735Y0027141D02*
X0082486Y0026390D01*
X0083236Y0026390D01*
X0083987Y0027141D01*
X0083987Y0028642D01*
X0084738Y0029393D01*
X0085488Y0029393D01*
X0086239Y0028642D01*
X0086239Y0027141D01*
X0085488Y0026390D01*
X0082486Y0029393D02*
X0081735Y0028642D01*
X0081735Y0027141D01*
X0082486Y0030994D02*
X0081735Y0031745D01*
X0081735Y0033246D01*
X0082486Y0033997D01*
X0083236Y0033997D01*
X0086239Y0030994D01*
X0086239Y0033997D01*
X0150586Y0033206D02*
X0150586Y0031704D01*
X0151336Y0030954D01*
X0151336Y0029352D02*
X0150586Y0028602D01*
X0150586Y0027101D01*
X0151336Y0026350D01*
X0152087Y0026350D01*
X0152838Y0027101D01*
X0152838Y0028602D01*
X0153588Y0029352D01*
X0154339Y0029352D01*
X0155090Y0028602D01*
X0155090Y0027101D01*
X0154339Y0026350D01*
X0154339Y0030954D02*
X0155090Y0031704D01*
X0155090Y0033206D01*
X0154339Y0033956D01*
X0153588Y0033956D01*
X0152838Y0033206D01*
X0152838Y0032455D01*
X0152838Y0033206D02*
X0152087Y0033956D01*
X0151336Y0033956D01*
X0150586Y0033206D01*
X0114769Y0159945D02*
X0111766Y0159945D01*
X0113268Y0159945D02*
X0113268Y0164449D01*
X0111766Y0162948D01*
X0110165Y0163698D02*
X0109414Y0164449D01*
X0107913Y0164449D01*
X0107163Y0163698D01*
X0107163Y0160696D01*
X0107913Y0159945D01*
X0109414Y0159945D01*
X0110165Y0160696D01*
X0091779Y0167625D02*
X0088777Y0167625D01*
X0090278Y0167625D02*
X0090278Y0172128D01*
X0088777Y0170627D01*
X0087175Y0171378D02*
X0086425Y0172128D01*
X0084923Y0172128D01*
X0084173Y0171378D01*
X0084173Y0168375D01*
X0084923Y0167625D01*
X0086425Y0167625D01*
X0087175Y0168375D01*
X0082605Y0167625D02*
X0081103Y0167625D01*
X0081854Y0167625D02*
X0081854Y0172128D01*
X0081103Y0172128D02*
X0082605Y0172128D01*
X0065523Y0163287D02*
X0065523Y0162536D01*
X0062521Y0159533D01*
X0065523Y0159533D01*
X0065523Y0163287D02*
X0064773Y0164037D01*
X0063271Y0164037D01*
X0062521Y0163287D01*
X0060919Y0163287D02*
X0060169Y0164037D01*
X0058667Y0164037D01*
X0057917Y0163287D01*
X0057917Y0160284D01*
X0058667Y0159533D01*
X0060169Y0159533D01*
X0060919Y0160284D01*
X0052534Y0193277D02*
X0049531Y0193277D01*
X0052534Y0196280D01*
X0052534Y0197031D01*
X0051783Y0197781D01*
X0050282Y0197781D01*
X0049531Y0197031D01*
X0047930Y0197031D02*
X0047930Y0195529D01*
X0047179Y0194779D01*
X0044927Y0194779D01*
X0044927Y0193277D02*
X0044927Y0197781D01*
X0047179Y0197781D01*
X0047930Y0197031D01*
X0046429Y0194779D02*
X0047930Y0193277D01*
X0043326Y0197781D02*
X0040323Y0197781D01*
X0041825Y0197781D02*
X0041825Y0193277D01*
X0036432Y0187398D02*
X0036432Y0186647D01*
X0035682Y0185896D01*
X0036432Y0185146D01*
X0036432Y0184395D01*
X0035682Y0183645D01*
X0034180Y0183645D01*
X0033430Y0184395D01*
X0031828Y0183645D02*
X0030327Y0185146D01*
X0031078Y0185146D02*
X0028826Y0185146D01*
X0028826Y0183645D02*
X0028826Y0188148D01*
X0031078Y0188148D01*
X0031828Y0187398D01*
X0031828Y0185896D01*
X0031078Y0185146D01*
X0033430Y0187398D02*
X0034180Y0188148D01*
X0035682Y0188148D01*
X0036432Y0187398D01*
X0035682Y0185896D02*
X0034931Y0185896D01*
X0025982Y0175968D02*
X0020982Y0175968D01*
X0015982Y0175968D01*
X0015982Y0195968D01*
X0020982Y0195968D01*
X0025982Y0195968D01*
X0025982Y0175968D01*
X0020982Y0175968D02*
X0020982Y0173968D01*
X0020982Y0195968D02*
X0020982Y0197968D01*
X0051560Y0231424D02*
X0053560Y0231424D01*
X0053560Y0226424D01*
X0073560Y0226424D01*
X0073560Y0231424D01*
X0073560Y0236424D01*
X0053560Y0236424D01*
X0053560Y0231424D01*
X0059650Y0240307D02*
X0059650Y0244811D01*
X0061902Y0244811D01*
X0062652Y0244060D01*
X0062652Y0242559D01*
X0061902Y0241808D01*
X0059650Y0241808D01*
X0061151Y0241808D02*
X0062652Y0240307D01*
X0064254Y0242559D02*
X0067256Y0242559D01*
X0066506Y0244811D02*
X0064254Y0242559D01*
X0066506Y0240307D02*
X0066506Y0244811D01*
X0073560Y0231424D02*
X0075560Y0231424D01*
X0074981Y0219592D02*
X0077233Y0219592D01*
X0077984Y0218842D01*
X0077984Y0217340D01*
X0077233Y0216590D01*
X0074981Y0216590D01*
X0076482Y0216590D02*
X0077984Y0215088D01*
X0079585Y0215088D02*
X0082588Y0218091D01*
X0082588Y0218842D01*
X0081837Y0219592D01*
X0080336Y0219592D01*
X0079585Y0218842D01*
X0079585Y0215088D02*
X0082588Y0215088D01*
X0088881Y0210916D02*
X0088881Y0205916D01*
X0088881Y0200916D01*
X0068881Y0200916D01*
X0068881Y0205916D01*
X0068881Y0210916D01*
X0088881Y0210916D01*
X0088881Y0205916D02*
X0090881Y0205916D01*
X0074981Y0215088D02*
X0074981Y0219592D01*
X0068881Y0205916D02*
X0066881Y0205916D01*
X0087646Y0236636D02*
X0092646Y0236636D01*
X0097646Y0236636D01*
X0097646Y0256636D01*
X0092646Y0256636D01*
X0087646Y0256636D01*
X0087646Y0236636D01*
X0084285Y0243894D02*
X0082784Y0243894D01*
X0082034Y0244645D01*
X0082034Y0246146D02*
X0083535Y0246897D01*
X0084285Y0246897D01*
X0085036Y0246146D01*
X0085036Y0244645D01*
X0084285Y0243894D01*
X0082034Y0246146D02*
X0082034Y0248398D01*
X0085036Y0248398D01*
X0080432Y0247647D02*
X0080432Y0246146D01*
X0079682Y0245395D01*
X0077430Y0245395D01*
X0078931Y0245395D02*
X0080432Y0243894D01*
X0080432Y0247647D02*
X0079682Y0248398D01*
X0077430Y0248398D01*
X0077430Y0243894D01*
X0092646Y0236636D02*
X0092646Y0234636D01*
X0105416Y0239469D02*
X0108418Y0239469D01*
X0106917Y0239469D02*
X0106917Y0234965D01*
X0110020Y0234965D02*
X0110020Y0239469D01*
X0112272Y0239469D01*
X0113022Y0238719D01*
X0113022Y0237217D01*
X0112272Y0236467D01*
X0110020Y0236467D01*
X0111521Y0236467D02*
X0113022Y0234965D01*
X0114624Y0234965D02*
X0117626Y0234965D01*
X0116125Y0234965D02*
X0116125Y0239469D01*
X0114624Y0237968D01*
X0126000Y0241000D02*
X0126000Y0221000D01*
X0131000Y0221000D01*
X0136000Y0221000D01*
X0136000Y0241000D01*
X0131000Y0241000D01*
X0126000Y0241000D01*
X0131000Y0241000D02*
X0131000Y0243000D01*
X0138958Y0233771D02*
X0141210Y0233771D01*
X0141960Y0233020D01*
X0141960Y0231519D01*
X0141210Y0230768D01*
X0138958Y0230768D01*
X0140459Y0230768D02*
X0141960Y0229267D01*
X0143562Y0229267D02*
X0146564Y0229267D01*
X0145063Y0229267D02*
X0145063Y0233771D01*
X0143562Y0232270D01*
X0138958Y0233771D02*
X0138958Y0229267D01*
X0131000Y0221000D02*
X0131000Y0219000D01*
X0129525Y0181972D02*
X0127273Y0181972D01*
X0127273Y0177469D01*
X0129525Y0177469D01*
X0130275Y0178219D01*
X0130275Y0181222D01*
X0129525Y0181972D01*
X0131877Y0180471D02*
X0133378Y0181972D01*
X0133378Y0177469D01*
X0131877Y0177469D02*
X0134879Y0177469D01*
X0146135Y0256573D02*
X0146135Y0261573D01*
X0146135Y0266573D01*
X0166135Y0266573D01*
X0166135Y0261573D01*
X0166135Y0256573D01*
X0146135Y0256573D01*
X0146135Y0261573D02*
X0144135Y0261573D01*
X0151245Y0269931D02*
X0151245Y0274435D01*
X0153497Y0274435D01*
X0154248Y0273684D01*
X0154248Y0272183D01*
X0153497Y0271432D01*
X0151245Y0271432D01*
X0152747Y0271432D02*
X0154248Y0269931D01*
X0155849Y0270681D02*
X0156600Y0269931D01*
X0158101Y0269931D01*
X0158852Y0270681D01*
X0158852Y0271432D01*
X0158101Y0272183D01*
X0155849Y0272183D01*
X0155849Y0270681D01*
X0155849Y0272183D02*
X0157351Y0273684D01*
X0158852Y0274435D01*
X0166135Y0261573D02*
X0168135Y0261573D01*
X0175287Y0315164D02*
X0176038Y0315164D01*
X0176789Y0315914D01*
X0176789Y0319668D01*
X0177539Y0319668D02*
X0176038Y0319668D01*
X0179141Y0318917D02*
X0179891Y0319668D01*
X0181392Y0319668D01*
X0182143Y0318917D01*
X0182143Y0318166D01*
X0181392Y0317416D01*
X0182143Y0316665D01*
X0182143Y0315914D01*
X0181392Y0315164D01*
X0179891Y0315164D01*
X0179141Y0315914D01*
X0180642Y0317416D02*
X0181392Y0317416D01*
X0175287Y0315164D02*
X0174537Y0315914D01*
X0127201Y0272206D02*
X0127201Y0271455D01*
X0126450Y0270705D01*
X0127201Y0269954D01*
X0127201Y0269203D01*
X0126450Y0268453D01*
X0124949Y0268453D01*
X0124198Y0269203D01*
X0122597Y0269203D02*
X0121846Y0268453D01*
X0120345Y0268453D01*
X0119594Y0269203D01*
X0119594Y0272206D01*
X0120345Y0272956D01*
X0121846Y0272956D01*
X0122597Y0272206D01*
X0124198Y0272206D02*
X0124949Y0272956D01*
X0126450Y0272956D01*
X0127201Y0272206D01*
X0126450Y0270705D02*
X0125699Y0270705D01*
X0092646Y0258636D02*
X0092646Y0256636D01*
D18*
X0148205Y0196748D02*
X0148205Y0190252D01*
X0150173Y0190252D02*
X0150173Y0196748D01*
X0148205Y0196748D01*
X0156079Y0191748D02*
X0156079Y0165252D01*
X0150173Y0165252D01*
X0150173Y0171748D01*
X0148205Y0171748D02*
X0148205Y0165252D01*
X0150173Y0165252D01*
X0156079Y0165252D02*
X0156079Y0163283D01*
X0203323Y0163283D01*
X0203323Y0168402D01*
X0199386Y0168402D01*
X0203323Y0168402D02*
X0203323Y0193598D01*
X0199386Y0193598D01*
X0203323Y0193598D02*
X0203323Y0198717D01*
X0171079Y0198717D01*
X0171827Y0193598D02*
X0167890Y0193598D01*
X0167890Y0191236D01*
X0167890Y0187299D02*
X0167890Y0184937D01*
X0167890Y0177063D01*
X0167890Y0174701D01*
X0167890Y0170764D02*
X0167890Y0168402D01*
X0171827Y0168402D01*
X0175764Y0168402D02*
X0179701Y0168402D01*
X0183638Y0168402D02*
X0187575Y0168402D01*
X0189543Y0165252D02*
X0156079Y0165252D01*
X0175764Y0193598D02*
X0179701Y0193598D01*
X0183638Y0193598D02*
X0187575Y0193598D01*
X0189543Y0198717D02*
X0189543Y0165252D01*
X0189543Y0163283D01*
X0191512Y0168402D02*
X0195449Y0168402D01*
X0195449Y0177063D02*
X0195573Y0177065D01*
X0195696Y0177071D01*
X0195820Y0177080D01*
X0195942Y0177094D01*
X0196065Y0177111D01*
X0196187Y0177133D01*
X0196308Y0177158D01*
X0196428Y0177187D01*
X0196547Y0177219D01*
X0196666Y0177256D01*
X0196783Y0177296D01*
X0196898Y0177339D01*
X0197013Y0177387D01*
X0197125Y0177438D01*
X0197236Y0177492D01*
X0197346Y0177550D01*
X0197453Y0177611D01*
X0197559Y0177676D01*
X0197662Y0177744D01*
X0197763Y0177815D01*
X0197862Y0177889D01*
X0197959Y0177966D01*
X0198053Y0178047D01*
X0198144Y0178130D01*
X0198233Y0178216D01*
X0198319Y0178305D01*
X0198402Y0178396D01*
X0198483Y0178490D01*
X0198560Y0178587D01*
X0198634Y0178686D01*
X0198705Y0178787D01*
X0198773Y0178890D01*
X0198838Y0178996D01*
X0198899Y0179103D01*
X0198957Y0179213D01*
X0199011Y0179324D01*
X0199062Y0179436D01*
X0199110Y0179551D01*
X0199153Y0179666D01*
X0199193Y0179783D01*
X0199230Y0179902D01*
X0199262Y0180021D01*
X0199291Y0180141D01*
X0199316Y0180262D01*
X0199338Y0180384D01*
X0199355Y0180507D01*
X0199369Y0180629D01*
X0199378Y0180753D01*
X0199384Y0180876D01*
X0199386Y0181000D01*
X0199384Y0181124D01*
X0199378Y0181247D01*
X0199369Y0181371D01*
X0199355Y0181493D01*
X0199338Y0181616D01*
X0199316Y0181738D01*
X0199291Y0181859D01*
X0199262Y0181979D01*
X0199230Y0182098D01*
X0199193Y0182217D01*
X0199153Y0182334D01*
X0199110Y0182449D01*
X0199062Y0182564D01*
X0199011Y0182676D01*
X0198957Y0182787D01*
X0198899Y0182897D01*
X0198838Y0183004D01*
X0198773Y0183110D01*
X0198705Y0183213D01*
X0198634Y0183314D01*
X0198560Y0183413D01*
X0198483Y0183510D01*
X0198402Y0183604D01*
X0198319Y0183695D01*
X0198233Y0183784D01*
X0198144Y0183870D01*
X0198053Y0183953D01*
X0197959Y0184034D01*
X0197862Y0184111D01*
X0197763Y0184185D01*
X0197662Y0184256D01*
X0197559Y0184324D01*
X0197453Y0184389D01*
X0197346Y0184450D01*
X0197236Y0184508D01*
X0197125Y0184562D01*
X0197013Y0184613D01*
X0196898Y0184661D01*
X0196783Y0184704D01*
X0196666Y0184744D01*
X0196547Y0184781D01*
X0196428Y0184813D01*
X0196308Y0184842D01*
X0196187Y0184867D01*
X0196065Y0184889D01*
X0195942Y0184906D01*
X0195820Y0184920D01*
X0195696Y0184929D01*
X0195573Y0184935D01*
X0195449Y0184937D01*
X0195449Y0193598D02*
X0191512Y0193598D01*
D19*
X0127370Y0170827D03*
M02*
