%
M48
M72
T01C0.0315
T02C0.0320
T03C0.0360
T04C0.0394
T05C0.0400
T06C0.0433
T07C0.0906
%
T01
X3109Y8105
X4109Y8105
X5109Y8105
X6109Y8105
X7109Y8105
X8109Y8105
X9109Y8105
X10109Y8105
X11109Y8105
X12109Y8105
X13109Y8105
X14109Y8105
X15109Y8105
X16109Y8105
X17109Y8105
X17109Y14105
X16109Y14105
X15109Y14105
X14109Y14105
X13109Y14105
X12109Y14105
X11109Y14105
X10109Y14105
X9109Y14105
X8109Y14105
X7109Y14105
X6109Y14105
X5109Y14105
X4109Y14105
X3109Y14105
X16100Y19990
X17281Y18100
T02
X13057Y17086
X13057Y18086
X13057Y19086
X13100Y21600
X11639Y22391
X11139Y21641
X10639Y22391
X9265Y23164
X7856Y23142
X6388Y20592
X7112Y19100
X7112Y18100
X7112Y17100
X9388Y20592
X10100Y18850
X10600Y18100
X9600Y18100
X13100Y24600
X12868Y26136
X11868Y26136
X10868Y26136
X9265Y26164
X4856Y23142
X4839Y21614
X4839Y20614
X4089Y21114
X2098Y20097
X2098Y17097
X14113Y26157
X17113Y26157
T03
X17917Y29682
X17917Y30682
T04
X14919Y18100
T05
X17874Y2530
X17874Y5090
X16094Y5090
X16094Y2530
X10989Y2534
X9209Y2534
X9209Y5094
X10989Y5094
X4108Y5105
X4108Y2545
X2328Y2545
X2328Y5105
T06
X10029Y30021
T07
X8454Y28446
X8454Y31635
X11604Y31635
X11604Y28446
M30
