G75*
%MOIN*%
%OFA0B0*%
%FSLAX25Y25*%
%IPPOS*%
%LPD*%
%AMOC8*
5,1,8,0,0,1.08239X$1,22.5*
%
%ADD10C,0.00000*%
%ADD11C,0.06000*%
%ADD12OC8,0.05200*%
%ADD13C,0.08600*%
%ADD14OC8,0.06300*%
%ADD15C,0.05600*%
%ADD16C,0.07600*%
%ADD17C,0.19685*%
%ADD18C,0.10000*%
%ADD19C,0.06600*%
%ADD20C,0.07000*%
%ADD21C,0.05000*%
D10*
X0001000Y0001000D02*
X0201000Y0001000D01*
X0201000Y0331000D01*
X0001000Y0331000D01*
X0001000Y0001000D01*
D11*
X0023278Y0022452D02*
X0023278Y0028452D01*
X0023278Y0048052D02*
X0023278Y0054052D01*
X0041078Y0054052D02*
X0041078Y0048052D01*
X0041078Y0028452D02*
X0041078Y0022452D01*
X0092089Y0022340D02*
X0092089Y0028340D01*
X0092089Y0047940D02*
X0092089Y0053940D01*
X0109889Y0053940D02*
X0109889Y0047940D01*
X0109889Y0028340D02*
X0109889Y0022340D01*
X0160940Y0022300D02*
X0160940Y0028300D01*
X0160940Y0047900D02*
X0160940Y0053900D01*
X0178740Y0053900D02*
X0178740Y0047900D01*
X0178740Y0028300D02*
X0178740Y0022300D01*
D12*
X0130568Y0170859D03*
X0130568Y0180859D03*
X0130568Y0190859D03*
X0111394Y0216412D03*
X0106394Y0223912D03*
X0116394Y0223912D03*
X0118676Y0261356D03*
X0128676Y0261356D03*
X0108676Y0261356D03*
X0071118Y0191005D03*
X0071118Y0181005D03*
X0071118Y0171005D03*
X0048392Y0206140D03*
X0048392Y0216140D03*
X0040892Y0211140D03*
X0096000Y0181000D03*
X0101000Y0188500D03*
X0106000Y0181000D03*
D13*
X0149189Y0185300D02*
X0149189Y0176700D01*
X0156700Y0199898D02*
X0165300Y0199898D01*
X0172811Y0185300D02*
X0172811Y0176700D01*
D14*
X0131000Y0216000D03*
X0131000Y0246000D03*
X0141135Y0261573D03*
X0171135Y0261573D03*
X0092646Y0261636D03*
X0092646Y0231636D03*
X0078560Y0231424D03*
X0063881Y0205916D03*
X0048560Y0231424D03*
X0020982Y0200968D03*
X0020982Y0170968D03*
X0093881Y0205916D03*
D15*
X0176371Y0296820D02*
X0181971Y0296820D01*
X0181971Y0306820D02*
X0176371Y0306820D01*
D16*
X0171085Y0141051D03*
X0161085Y0141051D03*
X0151085Y0141051D03*
X0141085Y0141051D03*
X0131085Y0141051D03*
X0121085Y0141051D03*
X0111085Y0141051D03*
X0101085Y0141051D03*
X0091085Y0141051D03*
X0081085Y0141051D03*
X0071085Y0141051D03*
X0061085Y0141051D03*
X0051085Y0141051D03*
X0041085Y0141051D03*
X0031085Y0141051D03*
X0031085Y0081051D03*
X0041085Y0081051D03*
X0051085Y0081051D03*
X0061085Y0081051D03*
X0071085Y0081051D03*
X0081085Y0081051D03*
X0091085Y0081051D03*
X0101085Y0081051D03*
X0111085Y0081051D03*
X0121085Y0081051D03*
X0131085Y0081051D03*
X0141085Y0081051D03*
X0151085Y0081051D03*
X0161085Y0081051D03*
X0171085Y0081051D03*
D17*
X0116039Y0284465D03*
X0116039Y0316354D03*
X0084543Y0316354D03*
X0084543Y0284465D03*
D18*
X0100291Y0300213D03*
D19*
X0116566Y0306361D02*
X0116566Y0306550D01*
X0191466Y0306550D01*
X0191466Y0261333D01*
X0171228Y0261333D01*
X0170997Y0261254D02*
X0171187Y0199593D01*
X0172895Y0199978D02*
X0172895Y0176496D01*
X0172881Y0180835D02*
X0172881Y0155354D01*
X0041101Y0155354D01*
X0041101Y0141000D01*
X0031049Y0141000D02*
X0031049Y0170661D01*
X0085972Y0170717D01*
X0095999Y0181022D01*
X0105993Y0180907D02*
X0116310Y0170568D01*
X0132245Y0170693D01*
X0131000Y0181000D02*
X0131000Y0191000D01*
X0131000Y0199978D01*
X0172895Y0199978D01*
X0141280Y0261119D02*
X0141280Y0296433D01*
X0179266Y0296433D01*
X0131353Y0245995D02*
X0116562Y0245995D01*
X0116562Y0223739D01*
X0111466Y0216154D02*
X0111466Y0205834D01*
X0094064Y0205834D01*
X0106253Y0223812D02*
X0106253Y0231375D01*
X0078703Y0231375D01*
X0078851Y0215871D02*
X0078851Y0190934D01*
X0071000Y0191000D02*
X0071000Y0181000D01*
X0071000Y0191000D02*
X0131000Y0191000D01*
X0131037Y0209734D02*
X0111359Y0209734D01*
X0131037Y0209734D02*
X0131037Y0215950D01*
X0120933Y0246290D02*
X0009535Y0246290D01*
X0009535Y0185920D01*
X0031000Y0185920D01*
X0031000Y0171000D01*
X0021000Y0171000D02*
X0021000Y0101000D01*
X0071000Y0101000D01*
X0071000Y0081000D01*
X0061000Y0081000D02*
X0061000Y0068500D01*
X0023435Y0068500D01*
X0023435Y0048122D01*
X0023500Y0051000D02*
X0023500Y0011000D01*
X0091994Y0011000D01*
X0161000Y0011000D01*
X0161000Y0051000D01*
X0178500Y0066000D02*
X0178500Y0021000D01*
X0178500Y0066000D02*
X0111000Y0066000D01*
X0111000Y0081000D01*
X0101000Y0081000D02*
X0101000Y0061000D01*
X0109851Y0051200D01*
X0091994Y0053500D02*
X0091994Y0011000D01*
X0076000Y0051000D02*
X0041000Y0051000D01*
X0041000Y0021000D01*
X0076000Y0051000D02*
X0076000Y0066000D01*
X0091000Y0066000D01*
X0091000Y0081000D01*
X0021000Y0201000D02*
X0021000Y0211000D01*
X0041000Y0211000D01*
X0048357Y0216145D02*
X0048357Y0231479D01*
X0048554Y0215871D02*
X0078851Y0215871D01*
X0063918Y0205796D02*
X0048599Y0205796D01*
X0048599Y0206084D01*
X0084367Y0284249D02*
X0084367Y0316782D01*
X0084666Y0316782D01*
X0084666Y0316334D01*
X0116143Y0316334D01*
X0116143Y0283957D01*
D20*
X0149137Y0181046D02*
X0149137Y0171000D01*
X0131000Y0171000D01*
X0172895Y0176496D02*
X0173068Y0176496D01*
X0109851Y0051200D02*
X0109851Y0021200D01*
X0041101Y0141000D02*
X0041000Y0141000D01*
X0031049Y0141000D02*
X0031000Y0141000D01*
D21*
X0092256Y0261473D02*
X0100560Y0261473D01*
X0100560Y0300211D01*
X0099521Y0261629D02*
X0118785Y0261629D01*
X0118785Y0261215D01*
X0128728Y0261215D02*
X0128728Y0261318D01*
X0141570Y0261318D01*
M02*
