G75*
%MOIN*%
%OFA0B0*%
%FSLAX25Y25*%
%IPPOS*%
%LPD*%
%AMOC8*
5,1,8,0,0,1.08239X$1,22.5*
%
%ADD10C,0.00000*%
%ADD11C,0.06800*%
%ADD12C,0.09400*%
%ADD13C,0.06400*%
%ADD14C,0.08400*%
%ADD15C,0.20485*%
%ADD16C,0.10800*%
%ADD17R,0.04762X0.04762*%
%ADD18C,0.04369*%
D10*
X0001000Y0001000D02*
X0201000Y0001000D01*
X0201000Y0261000D01*
X0001000Y0261000D01*
X0001000Y0001000D01*
D11*
X0023278Y0022452D02*
X0023278Y0028452D01*
X0023278Y0048052D02*
X0023278Y0054052D01*
X0041078Y0054052D02*
X0041078Y0048052D01*
X0041078Y0028452D02*
X0041078Y0022452D01*
X0092089Y0022340D02*
X0092089Y0028340D01*
X0109889Y0028340D02*
X0109889Y0022340D01*
X0109889Y0047940D02*
X0109889Y0053940D01*
X0092089Y0053940D02*
X0092089Y0047940D01*
X0160940Y0047900D02*
X0160940Y0053900D01*
X0178740Y0053900D02*
X0178740Y0047900D01*
X0178740Y0028300D02*
X0178740Y0022300D01*
X0160940Y0022300D02*
X0160940Y0028300D01*
D12*
X0149189Y0176700D02*
X0149189Y0185300D01*
X0156700Y0199898D02*
X0165300Y0199898D01*
X0172811Y0185300D02*
X0172811Y0176700D01*
D13*
X0182982Y0231633D02*
X0188582Y0231633D01*
X0188582Y0241633D02*
X0182982Y0241633D01*
D14*
X0171085Y0141051D03*
X0161085Y0141051D03*
X0151085Y0141051D03*
X0141085Y0141051D03*
X0131085Y0141051D03*
X0121085Y0141051D03*
X0111085Y0141051D03*
X0101085Y0141051D03*
X0091085Y0141051D03*
X0081085Y0141051D03*
X0071085Y0141051D03*
X0061085Y0141051D03*
X0051085Y0141051D03*
X0041085Y0141051D03*
X0031085Y0141051D03*
X0031085Y0081051D03*
X0041085Y0081051D03*
X0051085Y0081051D03*
X0061085Y0081051D03*
X0071085Y0081051D03*
X0081085Y0081051D03*
X0091085Y0081051D03*
X0101085Y0081051D03*
X0111085Y0081051D03*
X0121085Y0081051D03*
X0131085Y0081051D03*
X0141085Y0081051D03*
X0151085Y0081051D03*
X0161085Y0081051D03*
X0171085Y0081051D03*
D15*
X0116039Y0214465D03*
X0116039Y0246354D03*
X0084543Y0246354D03*
X0084543Y0214465D03*
D16*
X0100291Y0230213D03*
D17*
X0172895Y0176496D03*
D18*
X0058087Y0171070D03*
M02*
