%
M48
M72
T01C0.0197
T02C0.0236
T03C0.0315
T04C0.0394
T05C0.0400
T06C0.0433
T07C0.0906
%
T01
X5809Y17107
T02
X4110Y14100
X8467Y24633
X8437Y24678
X17290Y17650
T03
X17109Y8105
X16109Y8105
X15109Y8105
X14109Y8105
X13109Y8105
X12109Y8105
X11109Y8105
X10109Y8105
X9109Y8105
X8109Y8105
X7109Y8105
X6109Y8105
X5109Y8105
X4109Y8105
X3109Y8105
X3109Y14105
X4109Y14105
X5109Y14105
X6109Y14105
X7109Y14105
X8109Y14105
X9109Y14105
X10109Y14105
X11109Y14105
X12109Y14105
X13109Y14105
X14109Y14105
X15109Y14105
X16109Y14105
X17109Y14105
X17281Y18100
X16100Y19990
T04
X14919Y18100
T05
X17874Y2530
X16094Y2530
X16094Y5090
X17874Y5090
X10989Y5094
X9209Y5094
X9209Y2534
X10989Y2534
X4108Y2545
X2328Y2545
X2328Y5105
X4108Y5105
T06
X10029Y23021
T07
X8454Y21446
X8454Y24635
X11604Y24635
X11604Y21446
M30
